<mxfile host="app.diagrams.net" modified="2023-10-30T15:58:17.537Z" agent="Mozilla/5.0 (Windows NT 10.0; Win64; x64) AppleWebKit/537.36 (KHTML, like Gecko) Chrome/118.0.0.0 Safari/537.36" etag="D4-GPapw48AdMOm3HkaG" version="22.0.8" type="github" pages="2">
  <diagram name="Use Case" id="oXBvCQqOn24NfRZAZP5G">
    <mxGraphModel dx="778" dy="413" grid="1" gridSize="10" guides="1" tooltips="1" connect="1" arrows="1" fold="1" page="1" pageScale="1" pageWidth="1654" pageHeight="1169" math="0" shadow="0">
      <root>
        <mxCell id="0" />
        <mxCell id="1" parent="0" />
        <mxCell id="snqMM3BdzA7YAhs-tEeE-10" value="1. Login SSO" style="ellipse;whiteSpace=wrap;html=1;fillColor=#d5e8d4;strokeColor=#82b366;" parent="1" vertex="1">
          <mxGeometry x="735" y="450" width="140" height="70" as="geometry" />
        </mxCell>
        <mxCell id="snqMM3BdzA7YAhs-tEeE-40" value="2. Realisasi Kinerja" style="ellipse;whiteSpace=wrap;html=1;fillColor=#dae8fc;strokeColor=#6c8ebf;" parent="1" vertex="1">
          <mxGeometry x="960" y="470" width="120" height="70" as="geometry" />
        </mxCell>
        <mxCell id="snqMM3BdzA7YAhs-tEeE-41" value="4. Monitoring Kinerja Pegawai" style="ellipse;whiteSpace=wrap;html=1;fillColor=#dae8fc;strokeColor=#6c8ebf;" parent="1" vertex="1">
          <mxGeometry x="829.9999999999999" y="608" width="140" height="70" as="geometry" />
        </mxCell>
        <mxCell id="snqMM3BdzA7YAhs-tEeE-42" value="3. Penilaian Kinerja Berjenjang" style="ellipse;whiteSpace=wrap;html=1;fillColor=#dae8fc;strokeColor=#6c8ebf;" parent="1" vertex="1">
          <mxGeometry x="827" y="328" width="110" height="70" as="geometry" />
        </mxCell>
        <mxCell id="snqMM3BdzA7YAhs-tEeE-43" value="&amp;lt;&amp;lt;include&amp;gt;&amp;gt;" style="html=1;verticalAlign=bottom;labelBackgroundColor=none;endArrow=open;endFill=0;dashed=1;rounded=0;" parent="1" source="snqMM3BdzA7YAhs-tEeE-42" target="snqMM3BdzA7YAhs-tEeE-10" edge="1">
          <mxGeometry width="160" relative="1" as="geometry">
            <mxPoint x="520" y="294" as="sourcePoint" />
            <mxPoint x="680" y="294" as="targetPoint" />
            <Array as="points" />
          </mxGeometry>
        </mxCell>
        <mxCell id="snqMM3BdzA7YAhs-tEeE-44" value="&amp;lt;&amp;lt;include&amp;gt;&amp;gt;" style="html=1;verticalAlign=bottom;labelBackgroundColor=none;endArrow=open;endFill=0;dashed=1;rounded=0;" parent="1" edge="1">
          <mxGeometry width="160" relative="1" as="geometry">
            <mxPoint x="20" y="54" as="sourcePoint" />
            <mxPoint x="180" y="54" as="targetPoint" />
          </mxGeometry>
        </mxCell>
        <mxCell id="snqMM3BdzA7YAhs-tEeE-45" value="&amp;lt;&amp;lt;extend&amp;gt;&amp;gt;" style="html=1;verticalAlign=bottom;labelBackgroundColor=none;endArrow=open;endFill=0;dashed=1;rounded=0;" parent="1" edge="1">
          <mxGeometry width="160" relative="1" as="geometry">
            <mxPoint x="20" y="94" as="sourcePoint" />
            <mxPoint x="180" y="94" as="targetPoint" />
          </mxGeometry>
        </mxCell>
        <mxCell id="snqMM3BdzA7YAhs-tEeE-46" style="edgeStyle=none;shape=connector;rounded=0;orthogonalLoop=1;jettySize=auto;html=1;labelBackgroundColor=none;strokeColor=default;fontFamily=Poppins;fontSize=11;fontColor=default;endArrow=none;endFill=0;strokeWidth=0.85;fontSource=https%3A%2F%2Ffonts.googleapis.com%2Fcss%3Ffamily%3DPoppins;" parent="1" edge="1">
          <mxGeometry relative="1" as="geometry">
            <mxPoint x="170" y="134" as="sourcePoint" />
            <mxPoint x="20" y="134" as="targetPoint" />
          </mxGeometry>
        </mxCell>
        <mxCell id="snqMM3BdzA7YAhs-tEeE-51" value="3.2 Menilai Tugas" style="ellipse;whiteSpace=wrap;html=1;" parent="1" vertex="1">
          <mxGeometry x="837.0000000000001" y="210" width="90" height="70" as="geometry" />
        </mxCell>
        <mxCell id="snqMM3BdzA7YAhs-tEeE-52" value="3.1 Mengajukan Penilaian Tugas" style="ellipse;whiteSpace=wrap;html=1;" parent="1" vertex="1">
          <mxGeometry x="950" y="228" width="110" height="70" as="geometry" />
        </mxCell>
        <mxCell id="snqMM3BdzA7YAhs-tEeE-53" value="&amp;lt;&amp;lt;extend&amp;gt;&amp;gt;" style="html=1;verticalAlign=bottom;labelBackgroundColor=none;endArrow=open;endFill=0;dashed=1;rounded=0;" parent="1" source="snqMM3BdzA7YAhs-tEeE-51" target="snqMM3BdzA7YAhs-tEeE-42" edge="1">
          <mxGeometry width="160" relative="1" as="geometry">
            <mxPoint x="1279.3400000000001" y="243" as="sourcePoint" />
            <mxPoint x="1439.3400000000001" y="243" as="targetPoint" />
          </mxGeometry>
        </mxCell>
        <mxCell id="snqMM3BdzA7YAhs-tEeE-54" value="&amp;lt;&amp;lt;extend&amp;gt;&amp;gt;" style="html=1;verticalAlign=bottom;labelBackgroundColor=none;endArrow=open;endFill=0;dashed=1;rounded=0;" parent="1" source="snqMM3BdzA7YAhs-tEeE-52" target="snqMM3BdzA7YAhs-tEeE-42" edge="1">
          <mxGeometry width="160" relative="1" as="geometry">
            <mxPoint x="979.3399999999999" y="233" as="sourcePoint" />
            <mxPoint x="1139.3400000000001" y="233" as="targetPoint" />
          </mxGeometry>
        </mxCell>
        <mxCell id="snqMM3BdzA7YAhs-tEeE-77" value="5. Penyimpanan Dokumen" style="ellipse;whiteSpace=wrap;html=1;fillColor=#dae8fc;strokeColor=#6c8ebf;" parent="1" vertex="1">
          <mxGeometry x="620" y="363" width="110" height="70" as="geometry" />
        </mxCell>
        <mxCell id="snqMM3BdzA7YAhs-tEeE-79" value="5.1 Membuat Dokumen" style="ellipse;whiteSpace=wrap;html=1;" parent="1" vertex="1">
          <mxGeometry x="560" y="258" width="90" height="70" as="geometry" />
        </mxCell>
        <mxCell id="snqMM3BdzA7YAhs-tEeE-82" value="5.2 Menampilkan Dokumen" style="ellipse;whiteSpace=wrap;html=1;" parent="1" vertex="1">
          <mxGeometry x="482" y="327" width="90" height="70" as="geometry" />
        </mxCell>
        <mxCell id="snqMM3BdzA7YAhs-tEeE-83" value="5.3 Mengunduh Dokumen" style="ellipse;whiteSpace=wrap;html=1;" parent="1" vertex="1">
          <mxGeometry x="482" y="410" width="90" height="70" as="geometry" />
        </mxCell>
        <mxCell id="snqMM3BdzA7YAhs-tEeE-84" value="5.4 Menghapus Dokumen" style="ellipse;whiteSpace=wrap;html=1;" parent="1" vertex="1">
          <mxGeometry x="570" y="455" width="90" height="70" as="geometry" />
        </mxCell>
        <mxCell id="snqMM3BdzA7YAhs-tEeE-86" value="&amp;lt;&amp;lt;extend&amp;gt;&amp;gt;" style="html=1;verticalAlign=bottom;labelBackgroundColor=none;endArrow=open;endFill=0;dashed=1;rounded=0;" parent="1" source="snqMM3BdzA7YAhs-tEeE-79" target="snqMM3BdzA7YAhs-tEeE-77" edge="1">
          <mxGeometry width="160" relative="1" as="geometry">
            <mxPoint x="614" y="382" as="sourcePoint" />
            <mxPoint x="650" y="398" as="targetPoint" />
          </mxGeometry>
        </mxCell>
        <mxCell id="snqMM3BdzA7YAhs-tEeE-88" value="&amp;lt;&amp;lt;extend&amp;gt;&amp;gt;" style="html=1;verticalAlign=bottom;labelBackgroundColor=none;endArrow=open;endFill=0;dashed=1;rounded=0;" parent="1" source="snqMM3BdzA7YAhs-tEeE-82" target="snqMM3BdzA7YAhs-tEeE-77" edge="1">
          <mxGeometry width="160" relative="1" as="geometry">
            <mxPoint x="567.9431937522506" y="424.5394784449645" as="sourcePoint" />
            <mxPoint x="670" y="418" as="targetPoint" />
          </mxGeometry>
        </mxCell>
        <mxCell id="snqMM3BdzA7YAhs-tEeE-90" value="&amp;lt;&amp;lt;extend&amp;gt;&amp;gt;" style="html=1;verticalAlign=bottom;labelBackgroundColor=none;endArrow=open;endFill=0;dashed=1;rounded=0;" parent="1" source="snqMM3BdzA7YAhs-tEeE-84" target="snqMM3BdzA7YAhs-tEeE-77" edge="1">
          <mxGeometry width="160" relative="1" as="geometry">
            <mxPoint x="654" y="422" as="sourcePoint" />
            <mxPoint x="690" y="438" as="targetPoint" />
          </mxGeometry>
        </mxCell>
        <mxCell id="snqMM3BdzA7YAhs-tEeE-91" value="&amp;lt;&amp;lt;extend&amp;gt;&amp;gt;" style="html=1;verticalAlign=bottom;labelBackgroundColor=none;endArrow=open;endFill=0;dashed=1;rounded=0;" parent="1" source="snqMM3BdzA7YAhs-tEeE-83" target="snqMM3BdzA7YAhs-tEeE-77" edge="1">
          <mxGeometry width="160" relative="1" as="geometry">
            <mxPoint x="664" y="432" as="sourcePoint" />
            <mxPoint x="520" y="453" as="targetPoint" />
          </mxGeometry>
        </mxCell>
        <mxCell id="snqMM3BdzA7YAhs-tEeE-93" value="&amp;lt;&amp;lt;include&amp;gt;&amp;gt;" style="html=1;verticalAlign=bottom;labelBackgroundColor=none;endArrow=open;endFill=0;dashed=1;rounded=0;" parent="1" source="snqMM3BdzA7YAhs-tEeE-77" target="snqMM3BdzA7YAhs-tEeE-10" edge="1">
          <mxGeometry width="160" relative="1" as="geometry">
            <mxPoint x="932" y="479" as="sourcePoint" />
            <mxPoint x="816" y="460" as="targetPoint" />
          </mxGeometry>
        </mxCell>
        <mxCell id="snqMM3BdzA7YAhs-tEeE-94" value="6. Tanda Tangan &lt;br&gt;Elektronik" style="ellipse;whiteSpace=wrap;html=1;fillColor=#dae8fc;strokeColor=#6c8ebf;" parent="1" vertex="1">
          <mxGeometry x="632.5" y="598" width="120" height="70" as="geometry" />
        </mxCell>
        <mxCell id="snqMM3BdzA7YAhs-tEeE-96" value="6.4 Membuat Tanda Tangan Elektronik" style="ellipse;whiteSpace=wrap;html=1;" parent="1" vertex="1">
          <mxGeometry x="690" y="693" width="100" height="70" as="geometry" />
        </mxCell>
        <mxCell id="snqMM3BdzA7YAhs-tEeE-97" value="6.1 Mengunggah Dokumen" style="ellipse;whiteSpace=wrap;html=1;" parent="1" vertex="1">
          <mxGeometry x="577" y="705.5" width="100" height="70" as="geometry" />
        </mxCell>
        <mxCell id="snqMM3BdzA7YAhs-tEeE-98" value="6.3 Menghapus Dokumen" style="ellipse;whiteSpace=wrap;html=1;" parent="1" vertex="1">
          <mxGeometry x="490" y="570" width="100" height="70" as="geometry" />
        </mxCell>
        <mxCell id="snqMM3BdzA7YAhs-tEeE-99" value="6.2 Mengunduh Dokumen" style="ellipse;whiteSpace=wrap;html=1;" parent="1" vertex="1">
          <mxGeometry x="500" y="650" width="100" height="70" as="geometry" />
        </mxCell>
        <mxCell id="snqMM3BdzA7YAhs-tEeE-101" value="&amp;lt;&amp;lt;extend&amp;gt;&amp;gt;" style="html=1;verticalAlign=bottom;labelBackgroundColor=none;endArrow=open;endFill=0;dashed=1;rounded=0;" parent="1" source="snqMM3BdzA7YAhs-tEeE-98" target="snqMM3BdzA7YAhs-tEeE-94" edge="1">
          <mxGeometry width="160" relative="1" as="geometry">
            <mxPoint x="848.5" y="836" as="sourcePoint" />
            <mxPoint x="942.5" y="860" as="targetPoint" />
          </mxGeometry>
        </mxCell>
        <mxCell id="snqMM3BdzA7YAhs-tEeE-102" value="&amp;lt;&amp;lt;extend&amp;gt;&amp;gt;" style="html=1;verticalAlign=bottom;labelBackgroundColor=none;endArrow=open;endFill=0;dashed=1;rounded=0;" parent="1" source="snqMM3BdzA7YAhs-tEeE-99" target="snqMM3BdzA7YAhs-tEeE-94" edge="1">
          <mxGeometry width="160" relative="1" as="geometry">
            <mxPoint x="858.5" y="846" as="sourcePoint" />
            <mxPoint x="952.5" y="870" as="targetPoint" />
          </mxGeometry>
        </mxCell>
        <mxCell id="snqMM3BdzA7YAhs-tEeE-103" value="&amp;lt;&amp;lt;extend&amp;gt;&amp;gt;" style="html=1;verticalAlign=bottom;labelBackgroundColor=none;endArrow=open;endFill=0;dashed=1;rounded=0;" parent="1" source="snqMM3BdzA7YAhs-tEeE-97" target="snqMM3BdzA7YAhs-tEeE-94" edge="1">
          <mxGeometry width="160" relative="1" as="geometry">
            <mxPoint x="868.5" y="856" as="sourcePoint" />
            <mxPoint x="962.5" y="880" as="targetPoint" />
          </mxGeometry>
        </mxCell>
        <mxCell id="snqMM3BdzA7YAhs-tEeE-104" value="&amp;lt;&amp;lt;extend&amp;gt;&amp;gt;" style="html=1;verticalAlign=bottom;labelBackgroundColor=none;endArrow=open;endFill=0;dashed=1;rounded=0;" parent="1" source="snqMM3BdzA7YAhs-tEeE-96" target="snqMM3BdzA7YAhs-tEeE-94" edge="1">
          <mxGeometry width="160" relative="1" as="geometry">
            <mxPoint x="878.5" y="866" as="sourcePoint" />
            <mxPoint x="972.5" y="890" as="targetPoint" />
          </mxGeometry>
        </mxCell>
        <mxCell id="snqMM3BdzA7YAhs-tEeE-105" value="&amp;lt;&amp;lt;include&amp;gt;&amp;gt;" style="html=1;verticalAlign=bottom;labelBackgroundColor=none;endArrow=open;endFill=0;dashed=1;rounded=0;" parent="1" source="snqMM3BdzA7YAhs-tEeE-94" target="snqMM3BdzA7YAhs-tEeE-10" edge="1">
          <mxGeometry width="160" relative="1" as="geometry">
            <mxPoint x="507" y="807" as="sourcePoint" />
            <mxPoint x="728" y="482" as="targetPoint" />
          </mxGeometry>
        </mxCell>
        <mxCell id="snqMM3BdzA7YAhs-tEeE-106" value="2.3 Menampilkan status rencana kerja" style="ellipse;whiteSpace=wrap;html=1;fillColor=#f8cecc;strokeColor=#b85450;" parent="1" vertex="1">
          <mxGeometry x="1140.6699999999998" y="514.5" width="88.66" height="70" as="geometry" />
        </mxCell>
        <mxCell id="snqMM3BdzA7YAhs-tEeE-107" value="2.1 &lt;br&gt;Mengunggah Realisasi Kinerja Pegawai" style="ellipse;whiteSpace=wrap;html=1;" parent="1" vertex="1">
          <mxGeometry x="1020" y="578" width="110" height="90" as="geometry" />
        </mxCell>
        <mxCell id="snqMM3BdzA7YAhs-tEeE-108" value="4.1 Menampilkan Informasi Rencana Kerja" style="ellipse;whiteSpace=wrap;html=1;" parent="1" vertex="1">
          <mxGeometry x="850" y="703" width="120" height="75" as="geometry" />
        </mxCell>
        <mxCell id="snqMM3BdzA7YAhs-tEeE-109" value="&amp;lt;&amp;lt;extend&amp;gt;&amp;gt;" style="html=1;verticalAlign=bottom;labelBackgroundColor=none;endArrow=open;endFill=0;dashed=1;rounded=0;" parent="1" source="snqMM3BdzA7YAhs-tEeE-107" target="snqMM3BdzA7YAhs-tEeE-40" edge="1">
          <mxGeometry width="160" relative="1" as="geometry">
            <mxPoint x="1180" y="581" as="sourcePoint" />
            <mxPoint x="1140" y="569" as="targetPoint" />
          </mxGeometry>
        </mxCell>
        <mxCell id="snqMM3BdzA7YAhs-tEeE-110" value="&amp;lt;&amp;lt;extend&amp;gt;&amp;gt;" style="html=1;verticalAlign=bottom;labelBackgroundColor=none;endArrow=open;endFill=0;dashed=1;rounded=0;" parent="1" source="snqMM3BdzA7YAhs-tEeE-106" target="snqMM3BdzA7YAhs-tEeE-40" edge="1">
          <mxGeometry width="160" relative="1" as="geometry">
            <mxPoint x="1188" y="750" as="sourcePoint" />
            <mxPoint x="1201" y="700" as="targetPoint" />
          </mxGeometry>
        </mxCell>
        <mxCell id="snqMM3BdzA7YAhs-tEeE-111" value="&amp;lt;&amp;lt;extend&amp;gt;&amp;gt;" style="html=1;verticalAlign=bottom;labelBackgroundColor=none;endArrow=open;endFill=0;dashed=1;rounded=0;" parent="1" source="snqMM3BdzA7YAhs-tEeE-108" target="snqMM3BdzA7YAhs-tEeE-41" edge="1">
          <mxGeometry width="160" relative="1" as="geometry">
            <mxPoint x="808" y="1010.5" as="sourcePoint" />
            <mxPoint x="821" y="960.5" as="targetPoint" />
          </mxGeometry>
        </mxCell>
        <mxCell id="snqMM3BdzA7YAhs-tEeE-112" style="edgeStyle=orthogonalEdgeStyle;shape=connector;rounded=0;orthogonalLoop=1;jettySize=auto;html=1;exitX=1;exitY=0.5;exitDx=0;exitDy=0;entryX=1;entryY=0.12;entryDx=0;entryDy=0;labelBackgroundColor=none;strokeColor=default;fontFamily=Poppins;fontSize=11;fontColor=default;endArrow=block;endFill=0;entryPerimeter=0;strokeWidth=0.85;fontSource=https%3A%2F%2Ffonts.googleapis.com%2Fcss%3Ffamily%3DPoppins;" parent="1" source="snqMM3BdzA7YAhs-tEeE-113" target="snqMM3BdzA7YAhs-tEeE-132" edge="1">
          <mxGeometry relative="1" as="geometry">
            <Array as="points">
              <mxPoint x="1444" y="290" />
              <mxPoint x="1444" y="690" />
            </Array>
          </mxGeometry>
        </mxCell>
        <mxCell id="snqMM3BdzA7YAhs-tEeE-113" value="" style="swimlane;startSize=0;strokeColor=none;strokeWidth=0.85;fontFamily=Poppins;fontSource=https%3A%2F%2Ffonts.googleapis.com%2Fcss%3Ffamily%3DPoppins;" parent="1" vertex="1">
          <mxGeometry x="1364" y="228" width="50" height="100" as="geometry">
            <mxRectangle x="1470" y="450" width="50" height="40" as="alternateBounds" />
          </mxGeometry>
        </mxCell>
        <mxCell id="snqMM3BdzA7YAhs-tEeE-114" value="APK APBN" style="shape=umlActor;verticalLabelPosition=bottom;verticalAlign=top;html=1;outlineConnect=0;labelBackgroundColor=none;strokeWidth=0.85;fontFamily=Poppins;fontSource=https%3A%2F%2Ffonts.googleapis.com%2Fcss%3Ffamily%3DPoppins;" parent="snqMM3BdzA7YAhs-tEeE-113" vertex="1">
          <mxGeometry x="10" y="20" width="30" height="60" as="geometry" />
        </mxCell>
        <mxCell id="snqMM3BdzA7YAhs-tEeE-115" style="edgeStyle=orthogonalEdgeStyle;shape=connector;rounded=0;orthogonalLoop=1;jettySize=auto;html=1;exitX=1;exitY=0.5;exitDx=0;exitDy=0;entryX=1;entryY=0.02;entryDx=0;entryDy=0;labelBackgroundColor=none;strokeColor=default;fontFamily=Poppins;fontSize=11;fontColor=default;endArrow=block;endFill=0;entryPerimeter=0;strokeWidth=0.85;fontSource=https%3A%2F%2Ffonts.googleapis.com%2Fcss%3Ffamily%3DPoppins;" parent="1" source="snqMM3BdzA7YAhs-tEeE-116" target="snqMM3BdzA7YAhs-tEeE-132" edge="1">
          <mxGeometry relative="1" as="geometry">
            <Array as="points">
              <mxPoint x="1434" y="405" />
              <mxPoint x="1434" y="680" />
            </Array>
          </mxGeometry>
        </mxCell>
        <mxCell id="snqMM3BdzA7YAhs-tEeE-116" value="" style="swimlane;startSize=0;strokeColor=none;strokeWidth=0.85;fontFamily=Poppins;fontSource=https%3A%2F%2Ffonts.googleapis.com%2Fcss%3Ffamily%3DPoppins;" parent="1" vertex="1">
          <mxGeometry x="1364" y="355" width="50" height="100" as="geometry">
            <mxRectangle x="1470" y="450" width="50" height="40" as="alternateBounds" />
          </mxGeometry>
        </mxCell>
        <mxCell id="snqMM3BdzA7YAhs-tEeE-117" value="Perencana" style="shape=umlActor;verticalLabelPosition=bottom;verticalAlign=top;html=1;outlineConnect=0;labelBackgroundColor=none;strokeWidth=0.85;fontFamily=Poppins;fontSource=https%3A%2F%2Ffonts.googleapis.com%2Fcss%3Ffamily%3DPoppins;" parent="snqMM3BdzA7YAhs-tEeE-116" vertex="1">
          <mxGeometry x="10" y="20" width="30" height="60" as="geometry" />
        </mxCell>
        <mxCell id="snqMM3BdzA7YAhs-tEeE-118" style="edgeStyle=orthogonalEdgeStyle;shape=connector;rounded=0;orthogonalLoop=1;jettySize=auto;html=1;exitX=0.5;exitY=1;exitDx=0;exitDy=0;entryX=0.5;entryY=0;entryDx=0;entryDy=0;labelBackgroundColor=none;strokeColor=default;fontFamily=Poppins;fontSize=11;fontColor=default;endArrow=block;endFill=0;strokeWidth=0.85;fontSource=https%3A%2F%2Ffonts.googleapis.com%2Fcss%3Ffamily%3DPoppins;" parent="1" source="snqMM3BdzA7YAhs-tEeE-119" target="snqMM3BdzA7YAhs-tEeE-132" edge="1">
          <mxGeometry relative="1" as="geometry">
            <Array as="points">
              <mxPoint x="1389" y="640" />
              <mxPoint x="1389" y="640" />
            </Array>
          </mxGeometry>
        </mxCell>
        <mxCell id="snqMM3BdzA7YAhs-tEeE-119" value="" style="swimlane;startSize=0;strokeColor=none;strokeWidth=0.85;fontFamily=Poppins;fontSource=https%3A%2F%2Ffonts.googleapis.com%2Fcss%3Ffamily%3DPoppins;" parent="1" vertex="1">
          <mxGeometry x="1364" y="470" width="50" height="100" as="geometry">
            <mxRectangle x="1470" y="450" width="50" height="40" as="alternateBounds" />
          </mxGeometry>
        </mxCell>
        <mxCell id="snqMM3BdzA7YAhs-tEeE-120" value="Ketua Tim" style="shape=umlActor;verticalLabelPosition=bottom;verticalAlign=top;html=1;outlineConnect=0;labelBackgroundColor=none;strokeWidth=0.85;fontFamily=Poppins;fontSource=https%3A%2F%2Ffonts.googleapis.com%2Fcss%3Ffamily%3DPoppins;" parent="snqMM3BdzA7YAhs-tEeE-119" vertex="1">
          <mxGeometry x="10" y="20" width="30" height="60" as="geometry" />
        </mxCell>
        <mxCell id="snqMM3BdzA7YAhs-tEeE-121" style="edgeStyle=none;shape=connector;rounded=0;orthogonalLoop=1;jettySize=auto;html=1;exitX=0;exitY=0;exitDx=0;exitDy=0;entryX=1;entryY=0.5;entryDx=0;entryDy=0;labelBackgroundColor=none;strokeColor=default;fontFamily=Poppins;fontSize=11;fontColor=default;endArrow=block;endFill=0;strokeWidth=0.85;fontSource=https%3A%2F%2Ffonts.googleapis.com%2Fcss%3Ffamily%3DPoppins;" parent="1" source="snqMM3BdzA7YAhs-tEeE-122" target="snqMM3BdzA7YAhs-tEeE-130" edge="1">
          <mxGeometry relative="1" as="geometry" />
        </mxCell>
        <mxCell id="snqMM3BdzA7YAhs-tEeE-122" value="" style="swimlane;startSize=0;strokeColor=none;strokeWidth=0.85;fontFamily=Poppins;fontSource=https%3A%2F%2Ffonts.googleapis.com%2Fcss%3Ffamily%3DPoppins;" parent="1" vertex="1">
          <mxGeometry x="1483" y="858" width="50" height="100" as="geometry">
            <mxRectangle x="1470" y="450" width="50" height="40" as="alternateBounds" />
          </mxGeometry>
        </mxCell>
        <mxCell id="snqMM3BdzA7YAhs-tEeE-123" value="Kabag. Umum" style="shape=umlActor;verticalLabelPosition=bottom;verticalAlign=top;html=1;outlineConnect=0;labelBackgroundColor=none;strokeWidth=0.85;fontFamily=Poppins;fontSource=https%3A%2F%2Ffonts.googleapis.com%2Fcss%3Ffamily%3DPoppins;" parent="snqMM3BdzA7YAhs-tEeE-122" vertex="1">
          <mxGeometry x="10" y="20" width="30" height="60" as="geometry" />
        </mxCell>
        <mxCell id="snqMM3BdzA7YAhs-tEeE-124" style="edgeStyle=none;shape=connector;rounded=0;orthogonalLoop=1;jettySize=auto;html=1;exitX=0.25;exitY=0;exitDx=0;exitDy=0;entryX=0.25;entryY=1;entryDx=0;entryDy=0;labelBackgroundColor=none;strokeColor=default;fontFamily=Poppins;fontSize=11;fontColor=default;endArrow=block;endFill=0;strokeWidth=0.85;fontSource=https%3A%2F%2Ffonts.googleapis.com%2Fcss%3Ffamily%3DPoppins;" parent="1" source="snqMM3BdzA7YAhs-tEeE-125" target="snqMM3BdzA7YAhs-tEeE-130" edge="1">
          <mxGeometry relative="1" as="geometry" />
        </mxCell>
        <mxCell id="snqMM3BdzA7YAhs-tEeE-125" value="" style="swimlane;startSize=0;strokeColor=none;strokeWidth=0.85;fontFamily=Poppins;fontSource=https%3A%2F%2Ffonts.googleapis.com%2Fcss%3Ffamily%3DPoppins;" parent="1" vertex="1">
          <mxGeometry x="1372" y="954" width="50" height="100" as="geometry">
            <mxRectangle x="685" y="3348" width="50" height="40" as="alternateBounds" />
          </mxGeometry>
        </mxCell>
        <mxCell id="snqMM3BdzA7YAhs-tEeE-126" value="Inspektur Utama" style="shape=umlActor;verticalLabelPosition=bottom;verticalAlign=top;html=1;outlineConnect=0;labelBackgroundColor=none;strokeWidth=0.85;fontFamily=Poppins;fontSource=https%3A%2F%2Ffonts.googleapis.com%2Fcss%3Ffamily%3DPoppins;" parent="snqMM3BdzA7YAhs-tEeE-125" vertex="1">
          <mxGeometry x="10" y="20" width="30" height="60" as="geometry" />
        </mxCell>
        <mxCell id="snqMM3BdzA7YAhs-tEeE-127" style="edgeStyle=none;shape=connector;rounded=0;orthogonalLoop=1;jettySize=auto;html=1;exitX=0;exitY=0.25;exitDx=0;exitDy=0;entryX=0.5;entryY=1;entryDx=0;entryDy=0;labelBackgroundColor=none;strokeColor=default;fontFamily=Poppins;fontSize=11;fontColor=default;endArrow=block;endFill=0;strokeWidth=0.85;fontSource=https%3A%2F%2Ffonts.googleapis.com%2Fcss%3Ffamily%3DPoppins;" parent="1" source="snqMM3BdzA7YAhs-tEeE-128" target="snqMM3BdzA7YAhs-tEeE-130" edge="1">
          <mxGeometry relative="1" as="geometry" />
        </mxCell>
        <mxCell id="snqMM3BdzA7YAhs-tEeE-128" value="" style="swimlane;startSize=0;strokeColor=none;strokeWidth=0.85;fontFamily=Poppins;fontSource=https%3A%2F%2Ffonts.googleapis.com%2Fcss%3Ffamily%3DPoppins;" parent="1" vertex="1">
          <mxGeometry x="1483" y="958" width="50" height="100" as="geometry">
            <mxRectangle x="1470" y="450" width="50" height="40" as="alternateBounds" />
          </mxGeometry>
        </mxCell>
        <mxCell id="snqMM3BdzA7YAhs-tEeE-129" value="Inspektur Wilayah" style="shape=umlActor;verticalLabelPosition=bottom;verticalAlign=top;html=1;outlineConnect=0;labelBackgroundColor=none;strokeWidth=0.85;fontFamily=Poppins;fontSource=https%3A%2F%2Ffonts.googleapis.com%2Fcss%3Ffamily%3DPoppins;" parent="snqMM3BdzA7YAhs-tEeE-128" vertex="1">
          <mxGeometry x="10" y="20" width="30" height="60" as="geometry" />
        </mxCell>
        <mxCell id="snqMM3BdzA7YAhs-tEeE-130" value="" style="swimlane;startSize=0;strokeColor=none;strokeWidth=0.85;fontFamily=Poppins;fontSource=https%3A%2F%2Ffonts.googleapis.com%2Fcss%3Ffamily%3DPoppins;" parent="1" vertex="1">
          <mxGeometry x="1364" y="794" width="50" height="100" as="geometry">
            <mxRectangle x="1470" y="450" width="50" height="40" as="alternateBounds" />
          </mxGeometry>
        </mxCell>
        <mxCell id="snqMM3BdzA7YAhs-tEeE-131" value="Pimpinan" style="shape=umlActor;verticalLabelPosition=bottom;verticalAlign=top;html=1;outlineConnect=0;labelBackgroundColor=none;strokeWidth=0.85;fontFamily=Poppins;fontSource=https%3A%2F%2Ffonts.googleapis.com%2Fcss%3Ffamily%3DPoppins;" parent="snqMM3BdzA7YAhs-tEeE-130" vertex="1">
          <mxGeometry x="10" y="20" width="30" height="60" as="geometry" />
        </mxCell>
        <mxCell id="snqMM3BdzA7YAhs-tEeE-132" value="" style="swimlane;startSize=0;strokeColor=none;strokeWidth=0.85;fontFamily=Poppins;fontSource=https%3A%2F%2Ffonts.googleapis.com%2Fcss%3Ffamily%3DPoppins;" parent="1" vertex="1">
          <mxGeometry x="1364" y="678" width="50" height="100" as="geometry">
            <mxRectangle x="1470" y="450" width="50" height="40" as="alternateBounds" />
          </mxGeometry>
        </mxCell>
        <mxCell id="snqMM3BdzA7YAhs-tEeE-133" value="Pegawai" style="shape=umlActor;verticalLabelPosition=bottom;verticalAlign=top;html=1;outlineConnect=0;labelBackgroundColor=none;strokeWidth=0.85;fontFamily=Poppins;fontSource=https%3A%2F%2Ffonts.googleapis.com%2Fcss%3Ffamily%3DPoppins;" parent="snqMM3BdzA7YAhs-tEeE-132" vertex="1">
          <mxGeometry x="10" y="20" width="30" height="60" as="geometry" />
        </mxCell>
        <mxCell id="snqMM3BdzA7YAhs-tEeE-134" style="shape=connector;rounded=0;orthogonalLoop=1;jettySize=auto;html=1;exitX=0.5;exitY=1;exitDx=0;exitDy=0;entryX=0.25;entryY=0;entryDx=0;entryDy=0;labelBackgroundColor=none;strokeColor=default;fontFamily=Poppins;fontSize=11;fontColor=default;endArrow=block;endFill=0;strokeWidth=0.85;fontSource=https%3A%2F%2Ffonts.googleapis.com%2Fcss%3Ffamily%3DPoppins;edgeStyle=orthogonalEdgeStyle;" parent="1" source="snqMM3BdzA7YAhs-tEeE-135" target="snqMM3BdzA7YAhs-tEeE-150" edge="1">
          <mxGeometry relative="1" as="geometry">
            <Array as="points">
              <mxPoint x="1375" y="226" />
              <mxPoint x="1457" y="226" />
              <mxPoint x="1457" y="490" />
            </Array>
          </mxGeometry>
        </mxCell>
        <mxCell id="snqMM3BdzA7YAhs-tEeE-135" value="" style="swimlane;startSize=0;strokeColor=none;strokeWidth=0.85;fontFamily=Poppins;fontSource=https%3A%2F%2Ffonts.googleapis.com%2Fcss%3Ffamily%3DPoppins;" parent="1" vertex="1">
          <mxGeometry x="1350" y="54" width="50" height="116" as="geometry">
            <mxRectangle x="1470" y="450" width="50" height="40" as="alternateBounds" />
          </mxGeometry>
        </mxCell>
        <mxCell id="snqMM3BdzA7YAhs-tEeE-136" value="Sekretaris&lt;br&gt;Buntama" style="shape=umlActor;verticalLabelPosition=bottom;verticalAlign=top;html=1;outlineConnect=0;labelBackgroundColor=none;strokeColor=#000000;strokeWidth=0.85;fontFamily=Poppins;fontSource=https%3A%2F%2Ffonts.googleapis.com%2Fcss%3Ffamily%3DPoppins;" parent="snqMM3BdzA7YAhs-tEeE-135" vertex="1">
          <mxGeometry x="10" y="20" width="30" height="60" as="geometry" />
        </mxCell>
        <mxCell id="snqMM3BdzA7YAhs-tEeE-137" style="shape=connector;rounded=0;orthogonalLoop=1;jettySize=auto;html=1;entryX=0.5;entryY=0;entryDx=0;entryDy=0;labelBackgroundColor=none;strokeColor=default;fontFamily=Poppins;fontSize=11;fontColor=default;endArrow=block;endFill=0;strokeWidth=0.85;fontSource=https%3A%2F%2Ffonts.googleapis.com%2Fcss%3Ffamily%3DPoppins;exitX=0.5;exitY=1;exitDx=0;exitDy=0;edgeStyle=orthogonalEdgeStyle;" parent="1" source="snqMM3BdzA7YAhs-tEeE-138" target="snqMM3BdzA7YAhs-tEeE-150" edge="1">
          <mxGeometry relative="1" as="geometry">
            <mxPoint x="1467" y="206" as="sourcePoint" />
            <Array as="points">
              <mxPoint x="1467" y="166" />
              <mxPoint x="1467" y="328" />
              <mxPoint x="1499" y="328" />
            </Array>
          </mxGeometry>
        </mxCell>
        <mxCell id="snqMM3BdzA7YAhs-tEeE-138" value="" style="swimlane;startSize=0;strokeColor=none;strokeWidth=0.85;fontFamily=Poppins;fontSource=https%3A%2F%2Ffonts.googleapis.com%2Fcss%3Ffamily%3DPoppins;" parent="1" vertex="1">
          <mxGeometry x="1441" y="50" width="50" height="116" as="geometry">
            <mxRectangle x="1470" y="450" width="50" height="40" as="alternateBounds" />
          </mxGeometry>
        </mxCell>
        <mxCell id="snqMM3BdzA7YAhs-tEeE-139" value="Sekretaris &lt;br&gt;Inspektur Utama" style="shape=umlActor;verticalLabelPosition=bottom;verticalAlign=top;html=1;outlineConnect=0;labelBackgroundColor=none;strokeWidth=0.85;fontFamily=Poppins;fontSource=https%3A%2F%2Ffonts.googleapis.com%2Fcss%3Ffamily%3DPoppins;" parent="snqMM3BdzA7YAhs-tEeE-138" vertex="1">
          <mxGeometry x="10" y="20" width="30" height="60" as="geometry" />
        </mxCell>
        <mxCell id="snqMM3BdzA7YAhs-tEeE-140" style="shape=connector;rounded=0;orthogonalLoop=1;jettySize=auto;html=1;entryX=0.75;entryY=0;entryDx=0;entryDy=0;labelBackgroundColor=none;strokeColor=default;fontFamily=Poppins;fontSize=11;fontColor=default;endArrow=block;endFill=0;strokeWidth=0.85;fontSource=https%3A%2F%2Ffonts.googleapis.com%2Fcss%3Ffamily%3DPoppins;exitX=0.5;exitY=1;exitDx=0;exitDy=0;edgeStyle=orthogonalEdgeStyle;" parent="1" source="snqMM3BdzA7YAhs-tEeE-141" target="snqMM3BdzA7YAhs-tEeE-150" edge="1">
          <mxGeometry relative="1" as="geometry">
            <mxPoint x="1547" y="326" as="sourcePoint" />
          </mxGeometry>
        </mxCell>
        <mxCell id="snqMM3BdzA7YAhs-tEeE-141" value="" style="swimlane;startSize=0;strokeColor=none;strokeWidth=0.85;fontFamily=Poppins;fontSource=https%3A%2F%2Ffonts.googleapis.com%2Fcss%3Ffamily%3DPoppins;" parent="1" vertex="1">
          <mxGeometry x="1514" y="180" width="50" height="116" as="geometry">
            <mxRectangle x="1470" y="450" width="50" height="40" as="alternateBounds" />
          </mxGeometry>
        </mxCell>
        <mxCell id="snqMM3BdzA7YAhs-tEeE-142" value="Sekretaris &lt;br&gt;Inspektur Wilayah" style="shape=umlActor;verticalLabelPosition=bottom;verticalAlign=top;html=1;outlineConnect=0;labelBackgroundColor=none;strokeWidth=0.85;fontFamily=Poppins;fontSource=https%3A%2F%2Ffonts.googleapis.com%2Fcss%3Ffamily%3DPoppins;" parent="snqMM3BdzA7YAhs-tEeE-141" vertex="1">
          <mxGeometry x="10" y="20" width="30" height="60" as="geometry" />
        </mxCell>
        <mxCell id="snqMM3BdzA7YAhs-tEeE-143" style="shape=connector;rounded=0;orthogonalLoop=1;jettySize=auto;html=1;exitX=0;exitY=0.5;exitDx=0;exitDy=0;entryX=0.996;entryY=0.658;entryDx=0;entryDy=0;entryPerimeter=0;labelBackgroundColor=none;strokeColor=default;fontFamily=Poppins;fontSize=11;fontColor=default;endArrow=block;endFill=0;strokeWidth=0.85;fontSource=https%3A%2F%2Ffonts.googleapis.com%2Fcss%3Ffamily%3DPoppins;edgeStyle=orthogonalEdgeStyle;" parent="1" source="snqMM3BdzA7YAhs-tEeE-144" target="snqMM3BdzA7YAhs-tEeE-132" edge="1">
          <mxGeometry relative="1" as="geometry">
            <Array as="points">
              <mxPoint x="1507" y="646" />
              <mxPoint x="1507" y="744" />
            </Array>
          </mxGeometry>
        </mxCell>
        <mxCell id="snqMM3BdzA7YAhs-tEeE-144" value="" style="swimlane;startSize=0;strokeColor=none;strokeWidth=0.85;fontFamily=Poppins;fontSource=https%3A%2F%2Ffonts.googleapis.com%2Fcss%3Ffamily%3DPoppins;" parent="1" vertex="1">
          <mxGeometry x="1527" y="596" width="50" height="100" as="geometry">
            <mxRectangle x="1470" y="450" width="50" height="40" as="alternateBounds" />
          </mxGeometry>
        </mxCell>
        <mxCell id="snqMM3BdzA7YAhs-tEeE-145" value="Analis SDM" style="shape=umlActor;verticalLabelPosition=bottom;verticalAlign=top;html=1;outlineConnect=0;labelBackgroundColor=none;strokeWidth=0.85;fontFamily=Poppins;fontSource=https%3A%2F%2Ffonts.googleapis.com%2Fcss%3Ffamily%3DPoppins;" parent="snqMM3BdzA7YAhs-tEeE-144" vertex="1">
          <mxGeometry x="10" y="20" width="30" height="60" as="geometry" />
        </mxCell>
        <mxCell id="snqMM3BdzA7YAhs-tEeE-146" style="shape=connector;rounded=0;orthogonalLoop=1;jettySize=auto;html=1;exitX=0;exitY=0.75;exitDx=0;exitDy=0;entryX=0.985;entryY=0.85;entryDx=0;entryDy=0;entryPerimeter=0;labelBackgroundColor=none;strokeColor=default;fontFamily=Poppins;fontSize=11;fontColor=default;endArrow=block;endFill=0;strokeWidth=0.85;fontSource=https%3A%2F%2Ffonts.googleapis.com%2Fcss%3Ffamily%3DPoppins;" parent="1" source="snqMM3BdzA7YAhs-tEeE-147" target="snqMM3BdzA7YAhs-tEeE-132" edge="1">
          <mxGeometry relative="1" as="geometry" />
        </mxCell>
        <mxCell id="snqMM3BdzA7YAhs-tEeE-147" value="" style="swimlane;startSize=0;strokeColor=none;strokeWidth=0.85;fontFamily=Poppins;fontSource=https%3A%2F%2Ffonts.googleapis.com%2Fcss%3Ffamily%3DPoppins;" parent="1" vertex="1">
          <mxGeometry x="1520" y="733" width="50" height="100" as="geometry">
            <mxRectangle x="1470" y="450" width="50" height="40" as="alternateBounds" />
          </mxGeometry>
        </mxCell>
        <mxCell id="snqMM3BdzA7YAhs-tEeE-148" value="Operator &lt;br&gt;Wilayah" style="shape=umlActor;verticalLabelPosition=bottom;verticalAlign=top;html=1;outlineConnect=0;labelBackgroundColor=none;fontFamily=Poppins;fontSource=https%3A%2F%2Ffonts.googleapis.com%2Fcss%3Ffamily%3DPoppins;strokeWidth=0.85;" parent="snqMM3BdzA7YAhs-tEeE-147" vertex="1">
          <mxGeometry x="10" y="20" width="30" height="60" as="geometry" />
        </mxCell>
        <mxCell id="snqMM3BdzA7YAhs-tEeE-149" style="edgeStyle=orthogonalEdgeStyle;rounded=0;orthogonalLoop=1;jettySize=auto;html=1;exitX=0.5;exitY=1;exitDx=0;exitDy=0;entryX=1;entryY=0.25;entryDx=0;entryDy=0;labelBackgroundColor=none;endArrow=block;fontFamily=Poppins;endFill=0;strokeWidth=0.85;fontSource=https%3A%2F%2Ffonts.googleapis.com%2Fcss%3Ffamily%3DPoppins;" parent="1" source="snqMM3BdzA7YAhs-tEeE-150" target="snqMM3BdzA7YAhs-tEeE-132" edge="1">
          <mxGeometry relative="1" as="geometry" />
        </mxCell>
        <mxCell id="snqMM3BdzA7YAhs-tEeE-150" value="" style="swimlane;startSize=0;strokeColor=none;strokeWidth=0.85;fontFamily=Poppins;fontSource=https%3A%2F%2Ffonts.googleapis.com%2Fcss%3Ffamily%3DPoppins;" parent="1" vertex="1">
          <mxGeometry x="1474" y="490" width="50" height="100" as="geometry">
            <mxRectangle x="1470" y="450" width="50" height="40" as="alternateBounds" />
          </mxGeometry>
        </mxCell>
        <mxCell id="snqMM3BdzA7YAhs-tEeE-151" value="Sekretaris" style="shape=umlActor;verticalLabelPosition=bottom;verticalAlign=top;html=1;outlineConnect=0;labelBackgroundColor=none;strokeColor=#000000;strokeWidth=0.85;fontFamily=Poppins;fontSource=https%3A%2F%2Ffonts.googleapis.com%2Fcss%3Ffamily%3DPoppins;" parent="snqMM3BdzA7YAhs-tEeE-150" vertex="1">
          <mxGeometry x="10" y="20" width="30" height="60" as="geometry" />
        </mxCell>
        <mxCell id="snqMM3BdzA7YAhs-tEeE-161" style="edgeStyle=none;shape=connector;rounded=0;orthogonalLoop=1;jettySize=auto;html=1;labelBackgroundColor=none;strokeColor=default;fontFamily=Poppins;fontSize=11;fontColor=default;endArrow=none;endFill=0;strokeWidth=0.85;fontSource=https%3A%2F%2Ffonts.googleapis.com%2Fcss%3Ffamily%3DPoppins;exitX=0.011;exitY=0.117;exitDx=0;exitDy=0;exitPerimeter=0;" parent="1" source="snqMM3BdzA7YAhs-tEeE-132" target="snqMM3BdzA7YAhs-tEeE-42" edge="1">
          <mxGeometry relative="1" as="geometry">
            <mxPoint x="1374" y="723" as="sourcePoint" />
            <mxPoint x="1222" y="633" as="targetPoint" />
            <Array as="points" />
          </mxGeometry>
        </mxCell>
        <mxCell id="snqMM3BdzA7YAhs-tEeE-163" style="edgeStyle=none;shape=connector;rounded=0;orthogonalLoop=1;jettySize=auto;html=1;labelBackgroundColor=none;strokeColor=default;fontFamily=Poppins;fontSize=11;fontColor=default;endArrow=none;endFill=0;strokeWidth=0.85;fontSource=https%3A%2F%2Ffonts.googleapis.com%2Fcss%3Ffamily%3DPoppins;exitX=0;exitY=0.75;exitDx=0;exitDy=0;" parent="1" source="snqMM3BdzA7YAhs-tEeE-132" target="snqMM3BdzA7YAhs-tEeE-94" edge="1">
          <mxGeometry relative="1" as="geometry">
            <mxPoint x="1040" y="900" as="sourcePoint" />
            <mxPoint x="888" y="810" as="targetPoint" />
          </mxGeometry>
        </mxCell>
        <mxCell id="snqMM3BdzA7YAhs-tEeE-164" style="edgeStyle=none;shape=connector;rounded=0;orthogonalLoop=1;jettySize=auto;html=1;labelBackgroundColor=none;strokeColor=default;fontFamily=Poppins;fontSize=11;fontColor=default;endArrow=none;endFill=0;strokeWidth=0.85;fontSource=https%3A%2F%2Ffonts.googleapis.com%2Fcss%3Ffamily%3DPoppins;exitX=0;exitY=0.5;exitDx=0;exitDy=0;" parent="1" source="snqMM3BdzA7YAhs-tEeE-132" target="snqMM3BdzA7YAhs-tEeE-40" edge="1">
          <mxGeometry relative="1" as="geometry">
            <mxPoint x="1374" y="763" as="sourcePoint" />
            <mxPoint x="760" y="741" as="targetPoint" />
          </mxGeometry>
        </mxCell>
        <mxCell id="snqMM3BdzA7YAhs-tEeE-165" style="edgeStyle=none;shape=connector;rounded=0;orthogonalLoop=1;jettySize=auto;html=1;labelBackgroundColor=none;strokeColor=default;fontFamily=Poppins;fontSize=11;fontColor=default;endArrow=none;endFill=0;strokeWidth=0.85;fontSource=https%3A%2F%2Ffonts.googleapis.com%2Fcss%3Ffamily%3DPoppins;exitX=-0.008;exitY=0.426;exitDx=0;exitDy=0;exitPerimeter=0;" parent="1" source="snqMM3BdzA7YAhs-tEeE-130" target="snqMM3BdzA7YAhs-tEeE-41" edge="1">
          <mxGeometry relative="1" as="geometry">
            <mxPoint x="1384" y="773" as="sourcePoint" />
            <mxPoint x="770" y="751" as="targetPoint" />
          </mxGeometry>
        </mxCell>
        <mxCell id="snqMM3BdzA7YAhs-tEeE-170" value="&amp;lt;&amp;lt;include&amp;gt;&amp;gt;" style="html=1;verticalAlign=bottom;labelBackgroundColor=none;endArrow=open;endFill=0;dashed=1;rounded=0;" parent="1" source="snqMM3BdzA7YAhs-tEeE-40" target="snqMM3BdzA7YAhs-tEeE-10" edge="1">
          <mxGeometry width="160" relative="1" as="geometry">
            <mxPoint x="987" y="812" as="sourcePoint" />
            <mxPoint x="833" y="529" as="targetPoint" />
          </mxGeometry>
        </mxCell>
        <mxCell id="snqMM3BdzA7YAhs-tEeE-171" value="&amp;lt;&amp;lt;include&amp;gt;&amp;gt;" style="html=1;verticalAlign=bottom;labelBackgroundColor=none;endArrow=open;endFill=0;dashed=1;rounded=0;entryX=1;entryY=1;entryDx=0;entryDy=0;" parent="1" source="snqMM3BdzA7YAhs-tEeE-41" target="snqMM3BdzA7YAhs-tEeE-10" edge="1">
          <mxGeometry width="160" relative="1" as="geometry">
            <mxPoint x="997" y="822" as="sourcePoint" />
            <mxPoint x="843" y="539" as="targetPoint" />
          </mxGeometry>
        </mxCell>
        <mxCell id="snqMM3BdzA7YAhs-tEeE-173" value="SIMWAS Modul Unit Kerja" style="text;html=1;align=center;verticalAlign=middle;resizable=0;points=[];autosize=1;strokeColor=none;fillColor=none;" parent="1" vertex="1">
          <mxGeometry x="380" y="20" width="160" height="30" as="geometry" />
        </mxCell>
        <mxCell id="vms18pQq57iyTBjbZhR--1" value="2.2 Menyetujui Laporan Realisasi Kinerja Pegawai" style="ellipse;whiteSpace=wrap;html=1;" parent="1" vertex="1">
          <mxGeometry x="1030" y="355" width="100" height="70" as="geometry" />
        </mxCell>
        <mxCell id="vms18pQq57iyTBjbZhR--5" value="&amp;lt;&amp;lt;extend&amp;gt;&amp;gt;" style="html=1;verticalAlign=bottom;labelBackgroundColor=none;endArrow=open;endFill=0;dashed=1;rounded=0;" parent="1" source="vms18pQq57iyTBjbZhR--1" target="snqMM3BdzA7YAhs-tEeE-40" edge="1">
          <mxGeometry width="160" relative="1" as="geometry">
            <mxPoint x="1052" y="568" as="sourcePoint" />
            <mxPoint x="1098" y="552" as="targetPoint" />
          </mxGeometry>
        </mxCell>
        <mxCell id="vms18pQq57iyTBjbZhR--6" value="2.4 Edit Label Status Rencana Kerja" style="ellipse;whiteSpace=wrap;html=1;fillColor=#f8cecc;strokeColor=#b85450;" parent="1" vertex="1">
          <mxGeometry x="1130" y="433" width="99.33" height="70" as="geometry" />
        </mxCell>
        <mxCell id="vms18pQq57iyTBjbZhR--7" value="&amp;lt;&amp;lt;extend&amp;gt;&amp;gt;" style="html=1;verticalAlign=bottom;labelBackgroundColor=none;endArrow=open;endFill=0;dashed=1;rounded=0;" parent="1" source="vms18pQq57iyTBjbZhR--6" target="snqMM3BdzA7YAhs-tEeE-40" edge="1">
          <mxGeometry width="160" relative="1" as="geometry">
            <mxPoint x="1093" y="484" as="sourcePoint" />
            <mxPoint x="1117" y="506" as="targetPoint" />
          </mxGeometry>
        </mxCell>
        <mxCell id="vms18pQq57iyTBjbZhR--9" value="3.3 Mengembalikan&lt;br&gt;Tugas" style="ellipse;whiteSpace=wrap;html=1;" parent="1" vertex="1">
          <mxGeometry x="730.0000000000001" y="240" width="90" height="70" as="geometry" />
        </mxCell>
        <mxCell id="vms18pQq57iyTBjbZhR--10" value="&amp;lt;&amp;lt;extend&amp;gt;&amp;gt;" style="html=1;verticalAlign=bottom;labelBackgroundColor=none;endArrow=open;endFill=0;dashed=1;rounded=0;" parent="1" source="vms18pQq57iyTBjbZhR--9" target="snqMM3BdzA7YAhs-tEeE-42" edge="1">
          <mxGeometry width="160" relative="1" as="geometry">
            <mxPoint x="887" y="290" as="sourcePoint" />
            <mxPoint x="890" y="338" as="targetPoint" />
          </mxGeometry>
        </mxCell>
      </root>
    </mxGraphModel>
  </diagram>
  <diagram id="qOrCq1Of_xuBCiXBpvp4" name="Activity Diagram">
    <mxGraphModel dx="2593" dy="2547" grid="1" gridSize="10" guides="1" tooltips="1" connect="1" arrows="1" fold="1" page="1" pageScale="1" pageWidth="1654" pageHeight="1169" math="0" shadow="0">
      <root>
        <mxCell id="0" />
        <mxCell id="1" parent="0" />
        <mxCell id="_xT_H7j3qOh2uHTG6pcY-1" value="&lt;b&gt;&lt;font color=&quot;#007fff&quot; style=&quot;font-size: 32px;&quot;&gt;Login&lt;/font&gt;&lt;/b&gt;" style="text;html=1;strokeColor=none;fillColor=none;align=left;verticalAlign=middle;whiteSpace=wrap;rounded=0;movable=0;resizable=0;rotatable=0;deletable=0;editable=0;locked=1;connectable=0;" vertex="1" parent="1">
          <mxGeometry x="80" y="-1140" width="590" height="40" as="geometry" />
        </mxCell>
        <mxCell id="_xT_H7j3qOh2uHTG6pcY-2" value="Login" style="swimlane;html=1;childLayout=stackLayout;resizeParent=1;resizeParentMax=0;horizontal=0;startSize=20;horizontalStack=0;whiteSpace=wrap;fontSize=11;fontFamily=Poppins;fontSource=https%3A%2F%2Ffonts.googleapis.com%2Fcss%3Ffamily%3DPoppins;movable=0;resizable=0;rotatable=0;deletable=0;editable=0;locked=1;connectable=0;" vertex="1" parent="1">
          <mxGeometry x="80" y="-1080" width="590" height="180" as="geometry" />
        </mxCell>
        <mxCell id="_xT_H7j3qOh2uHTG6pcY-3" value="Pengguna" style="swimlane;html=1;startSize=20;horizontal=0;fontFamily=Poppins;fontSource=https%3A%2F%2Ffonts.googleapis.com%2Fcss%3Ffamily%3DPoppins;movable=0;resizable=0;rotatable=0;deletable=0;editable=0;locked=1;connectable=0;" vertex="1" parent="_xT_H7j3qOh2uHTG6pcY-2">
          <mxGeometry x="20" width="570" height="90" as="geometry" />
        </mxCell>
        <mxCell id="_xT_H7j3qOh2uHTG6pcY-4" value="Mengunjungi Halaman Login" style="rounded=1;whiteSpace=wrap;html=1;labelBackgroundColor=none;fontSize=11;arcSize=10;spacingLeft=8;spacingRight=8;fontFamily=Poppins;fontSource=https%3A%2F%2Ffonts.googleapis.com%2Fcss%3Ffamily%3DPoppins;movable=0;resizable=0;rotatable=0;deletable=0;editable=0;locked=1;connectable=0;" vertex="1" parent="_xT_H7j3qOh2uHTG6pcY-3">
          <mxGeometry x="80" y="15" width="90" height="60" as="geometry" />
        </mxCell>
        <mxCell id="_xT_H7j3qOh2uHTG6pcY-5" style="edgeStyle=orthogonalEdgeStyle;rounded=0;orthogonalLoop=1;jettySize=auto;html=1;exitX=1;exitY=0.5;exitDx=0;exitDy=0;exitPerimeter=0;movable=0;resizable=0;rotatable=0;deletable=0;editable=0;locked=1;connectable=0;" edge="1" parent="_xT_H7j3qOh2uHTG6pcY-3" source="_xT_H7j3qOh2uHTG6pcY-6" target="_xT_H7j3qOh2uHTG6pcY-4">
          <mxGeometry relative="1" as="geometry" />
        </mxCell>
        <mxCell id="_xT_H7j3qOh2uHTG6pcY-6" value="" style="strokeWidth=2;html=1;shape=mxgraph.flowchart.start_2;whiteSpace=wrap;fontSize=11;labelPosition=center;verticalLabelPosition=middle;align=center;verticalAlign=top;spacing=0;fillColor=#000000;strokeColor=#FF0000;movable=0;resizable=0;rotatable=0;deletable=0;editable=0;locked=1;connectable=0;" vertex="1" parent="_xT_H7j3qOh2uHTG6pcY-3">
          <mxGeometry x="30.000000000000455" y="30" width="30" height="30" as="geometry" />
        </mxCell>
        <mxCell id="_xT_H7j3qOh2uHTG6pcY-7" style="edgeStyle=orthogonalEdgeStyle;shape=connector;rounded=0;orthogonalLoop=1;jettySize=auto;html=1;exitX=1;exitY=0.5;exitDx=0;exitDy=0;entryX=0;entryY=0.5;entryDx=0;entryDy=0;labelBackgroundColor=default;strokeColor=default;fontFamily=Poppins;fontSource=https%3A%2F%2Ffonts.googleapis.com%2Fcss%3Ffamily%3DPoppins;fontSize=8;fontColor=default;endArrow=classic;movable=0;resizable=0;rotatable=0;deletable=0;editable=0;locked=1;connectable=0;" edge="1" parent="_xT_H7j3qOh2uHTG6pcY-3" source="_xT_H7j3qOh2uHTG6pcY-8" target="_xT_H7j3qOh2uHTG6pcY-12">
          <mxGeometry relative="1" as="geometry" />
        </mxCell>
        <mxCell id="_xT_H7j3qOh2uHTG6pcY-8" value="Menekan tombol Login dengan SSO" style="rounded=1;whiteSpace=wrap;html=1;labelBackgroundColor=none;fontSize=11;arcSize=10;spacingLeft=8;spacingRight=8;fontFamily=Poppins;fontSource=https%3A%2F%2Ffonts.googleapis.com%2Fcss%3Ffamily%3DPoppins;movable=0;resizable=0;rotatable=0;deletable=0;editable=0;locked=1;connectable=0;" vertex="1" parent="_xT_H7j3qOh2uHTG6pcY-3">
          <mxGeometry x="200" y="15" width="90" height="60" as="geometry" />
        </mxCell>
        <mxCell id="_xT_H7j3qOh2uHTG6pcY-9" style="edgeStyle=orthogonalEdgeStyle;rounded=0;orthogonalLoop=1;jettySize=auto;html=1;exitX=1;exitY=0.5;exitDx=0;exitDy=0;entryX=0;entryY=0.5;entryDx=0;entryDy=0;movable=0;resizable=0;rotatable=0;deletable=0;editable=0;locked=1;connectable=0;" edge="1" parent="_xT_H7j3qOh2uHTG6pcY-3" source="_xT_H7j3qOh2uHTG6pcY-10" target="_xT_H7j3qOh2uHTG6pcY-11">
          <mxGeometry relative="1" as="geometry" />
        </mxCell>
        <mxCell id="_xT_H7j3qOh2uHTG6pcY-10" value="Menampilkan dashboard Pegawai" style="rounded=1;whiteSpace=wrap;html=1;labelBackgroundColor=none;fontSize=11;arcSize=10;spacingLeft=8;spacingRight=8;fontFamily=Poppins;fontSource=https%3A%2F%2Ffonts.googleapis.com%2Fcss%3Ffamily%3DPoppins;movable=0;resizable=0;rotatable=0;deletable=0;editable=0;locked=1;connectable=0;" vertex="1" parent="_xT_H7j3qOh2uHTG6pcY-3">
          <mxGeometry x="407" y="15" width="90" height="60" as="geometry" />
        </mxCell>
        <mxCell id="_xT_H7j3qOh2uHTG6pcY-11" value="" style="ellipse;html=1;shape=endState;strokeWidth=1;fontSize=11;fillColor=#000000;strokeColor=#FF0000;movable=0;resizable=0;rotatable=0;deletable=0;editable=0;locked=1;connectable=0;" vertex="1" parent="_xT_H7j3qOh2uHTG6pcY-3">
          <mxGeometry x="517" y="25" width="40" height="40" as="geometry" />
        </mxCell>
        <mxCell id="_xT_H7j3qOh2uHTG6pcY-12" value="Memilih akun Google" style="rounded=1;whiteSpace=wrap;html=1;labelBackgroundColor=none;fontSize=11;arcSize=10;spacingLeft=8;spacingRight=8;fontFamily=Poppins;fontSource=https%3A%2F%2Ffonts.googleapis.com%2Fcss%3Ffamily%3DPoppins;movable=0;resizable=0;rotatable=0;deletable=0;editable=0;locked=1;connectable=0;" vertex="1" parent="_xT_H7j3qOh2uHTG6pcY-3">
          <mxGeometry x="307" y="15" width="90" height="60" as="geometry" />
        </mxCell>
        <mxCell id="_xT_H7j3qOh2uHTG6pcY-13" style="edgeStyle=orthogonalEdgeStyle;rounded=0;orthogonalLoop=1;jettySize=auto;html=1;exitX=0;exitY=0.75;exitDx=0;exitDy=0;entryX=0.25;entryY=0;entryDx=0;entryDy=0;movable=0;resizable=0;rotatable=0;deletable=0;editable=0;locked=1;connectable=0;" edge="1" parent="_xT_H7j3qOh2uHTG6pcY-2" source="_xT_H7j3qOh2uHTG6pcY-4" target="_xT_H7j3qOh2uHTG6pcY-18">
          <mxGeometry relative="1" as="geometry">
            <Array as="points">
              <mxPoint x="85" y="60" />
              <mxPoint x="85" y="100" />
              <mxPoint x="85" y="100" />
            </Array>
          </mxGeometry>
        </mxCell>
        <mxCell id="_xT_H7j3qOh2uHTG6pcY-14" style="edgeStyle=orthogonalEdgeStyle;rounded=0;orthogonalLoop=1;jettySize=auto;html=1;exitX=1;exitY=0.25;exitDx=0;exitDy=0;entryX=0;entryY=0.5;entryDx=0;entryDy=0;movable=0;resizable=0;rotatable=0;deletable=0;editable=0;locked=1;connectable=0;" edge="1" parent="_xT_H7j3qOh2uHTG6pcY-2" source="_xT_H7j3qOh2uHTG6pcY-18" target="_xT_H7j3qOh2uHTG6pcY-8">
          <mxGeometry relative="1" as="geometry">
            <Array as="points">
              <mxPoint x="200" y="120" />
              <mxPoint x="200" y="45" />
            </Array>
          </mxGeometry>
        </mxCell>
        <mxCell id="_xT_H7j3qOh2uHTG6pcY-15" style="edgeStyle=orthogonalEdgeStyle;rounded=0;orthogonalLoop=1;jettySize=auto;html=1;exitX=0.5;exitY=1;exitDx=0;exitDy=0;movable=0;resizable=0;rotatable=0;deletable=0;editable=0;locked=1;connectable=0;" edge="1" parent="_xT_H7j3qOh2uHTG6pcY-2" source="_xT_H7j3qOh2uHTG6pcY-12" target="_xT_H7j3qOh2uHTG6pcY-20">
          <mxGeometry relative="1" as="geometry" />
        </mxCell>
        <mxCell id="_xT_H7j3qOh2uHTG6pcY-16" value="Akun terdaftar" style="edgeStyle=orthogonalEdgeStyle;rounded=0;orthogonalLoop=1;jettySize=auto;html=1;exitX=1;exitY=0.5;exitDx=0;exitDy=0;fontSize=8;fontFamily=Poppins;fontSource=https%3A%2F%2Ffonts.googleapis.com%2Fcss%3Ffamily%3DPoppins;movable=0;resizable=0;rotatable=0;deletable=0;editable=0;locked=1;connectable=0;" edge="1" parent="_xT_H7j3qOh2uHTG6pcY-2" source="_xT_H7j3qOh2uHTG6pcY-20" target="_xT_H7j3qOh2uHTG6pcY-10">
          <mxGeometry relative="1" as="geometry" />
        </mxCell>
        <mxCell id="_xT_H7j3qOh2uHTG6pcY-17" value="Sistem" style="swimlane;html=1;startSize=20;horizontal=0;fontFamily=Poppins;fontSource=https%3A%2F%2Ffonts.googleapis.com%2Fcss%3Ffamily%3DPoppins;movable=0;resizable=0;rotatable=0;deletable=0;editable=0;locked=1;connectable=0;" vertex="1" parent="_xT_H7j3qOh2uHTG6pcY-2">
          <mxGeometry x="20" y="90" width="570" height="90" as="geometry" />
        </mxCell>
        <mxCell id="_xT_H7j3qOh2uHTG6pcY-18" value="Menampilkan Halaman Login" style="rounded=1;whiteSpace=wrap;html=1;labelBackgroundColor=none;fontSize=11;arcSize=10;spacingLeft=8;spacingRight=8;fontFamily=Poppins;fontSource=https%3A%2F%2Ffonts.googleapis.com%2Fcss%3Ffamily%3DPoppins;movable=0;resizable=0;rotatable=0;deletable=0;editable=0;locked=1;connectable=0;" vertex="1" parent="_xT_H7j3qOh2uHTG6pcY-17">
          <mxGeometry x="42" y="15" width="90" height="60" as="geometry" />
        </mxCell>
        <mxCell id="_xT_H7j3qOh2uHTG6pcY-19" value="Akun tidak &lt;br&gt;terdaftar" style="edgeStyle=orthogonalEdgeStyle;rounded=0;orthogonalLoop=1;jettySize=auto;html=1;exitX=0.5;exitY=1;exitDx=0;exitDy=0;entryX=1;entryY=0.75;entryDx=0;entryDy=0;fontFamily=Poppins;fontSource=https%3A%2F%2Ffonts.googleapis.com%2Fcss%3Ffamily%3DPoppins;fontSize=8;movable=0;resizable=0;rotatable=0;deletable=0;editable=0;locked=1;connectable=0;" edge="1" parent="_xT_H7j3qOh2uHTG6pcY-17" source="_xT_H7j3qOh2uHTG6pcY-20" target="_xT_H7j3qOh2uHTG6pcY-18">
          <mxGeometry x="-0.0623" relative="1" as="geometry">
            <Array as="points">
              <mxPoint x="190" y="60" />
              <mxPoint x="190" y="60" />
            </Array>
            <mxPoint as="offset" />
          </mxGeometry>
        </mxCell>
        <mxCell id="_xT_H7j3qOh2uHTG6pcY-20" value="" style="rhombus;whiteSpace=wrap;html=1;fontSize=11;fontFamily=Poppins;fontSource=https%3A%2F%2Ffonts.googleapis.com%2Fcss%3Ffamily%3DPoppins;movable=0;resizable=0;rotatable=0;deletable=0;editable=0;locked=1;connectable=0;" vertex="1" parent="_xT_H7j3qOh2uHTG6pcY-17">
          <mxGeometry x="337.00000000000045" y="15" width="30" height="30" as="geometry" />
        </mxCell>
        <mxCell id="edMHtCI9T4lUfA1AtTfE-1" value="&lt;b&gt;&lt;font color=&quot;#007fff&quot; style=&quot;font-size: 32px;&quot;&gt;Realisasi Kinerja&lt;/font&gt;&lt;/b&gt;" style="text;html=1;strokeColor=none;fillColor=none;align=left;verticalAlign=middle;whiteSpace=wrap;rounded=0;" vertex="1" parent="1">
          <mxGeometry x="760" y="-1140" width="590" height="40" as="geometry" />
        </mxCell>
        <mxCell id="edMHtCI9T4lUfA1AtTfE-52" value="2.1 Mengunggah Realisasi Kinerja" style="swimlane;html=1;childLayout=stackLayout;resizeParent=1;resizeParentMax=0;horizontal=0;startSize=37;horizontalStack=0;whiteSpace=wrap;fontSize=11;fontFamily=Poppins;fontSource=https%3A%2F%2Ffonts.googleapis.com%2Fcss%3Ffamily%3DPoppins;spacing=6;spacingTop=4;spacingLeft=6;spacingRight=6;" vertex="1" parent="1">
          <mxGeometry x="760" y="-1080" width="720" height="290" as="geometry" />
        </mxCell>
        <mxCell id="edMHtCI9T4lUfA1AtTfE-53" style="edgeStyle=orthogonalEdgeStyle;rounded=0;orthogonalLoop=1;jettySize=auto;html=1;exitX=-0.001;exitY=0.765;exitDx=0;exitDy=0;entryX=0.098;entryY=0.017;entryDx=0;entryDy=0;entryPerimeter=0;exitPerimeter=0;" edge="1" parent="edMHtCI9T4lUfA1AtTfE-52" source="edMHtCI9T4lUfA1AtTfE-60" target="edMHtCI9T4lUfA1AtTfE-69">
          <mxGeometry relative="1" as="geometry">
            <Array as="points">
              <mxPoint x="98" y="51" />
            </Array>
          </mxGeometry>
        </mxCell>
        <mxCell id="edMHtCI9T4lUfA1AtTfE-54" style="edgeStyle=orthogonalEdgeStyle;rounded=0;orthogonalLoop=1;jettySize=auto;html=1;exitX=0.75;exitY=1;exitDx=0;exitDy=0;entryX=0.25;entryY=0;entryDx=0;entryDy=0;" edge="1" parent="edMHtCI9T4lUfA1AtTfE-52" source="edMHtCI9T4lUfA1AtTfE-63" target="edMHtCI9T4lUfA1AtTfE-70">
          <mxGeometry relative="1" as="geometry">
            <Array as="points">
              <mxPoint x="185" y="151" />
              <mxPoint x="210" y="151" />
            </Array>
          </mxGeometry>
        </mxCell>
        <mxCell id="edMHtCI9T4lUfA1AtTfE-55" style="edgeStyle=orthogonalEdgeStyle;rounded=0;orthogonalLoop=1;jettySize=auto;html=1;exitX=0.5;exitY=0;exitDx=0;exitDy=0;entryX=0.175;entryY=1.004;entryDx=0;entryDy=0;entryPerimeter=0;" edge="1" parent="edMHtCI9T4lUfA1AtTfE-52" source="edMHtCI9T4lUfA1AtTfE-70" target="edMHtCI9T4lUfA1AtTfE-64">
          <mxGeometry relative="1" as="geometry" />
        </mxCell>
        <mxCell id="edMHtCI9T4lUfA1AtTfE-56" style="edgeStyle=orthogonalEdgeStyle;rounded=0;orthogonalLoop=1;jettySize=auto;html=1;entryX=0.25;entryY=0;entryDx=0;entryDy=0;fontSize=12;startSize=8;endSize=8;exitX=0.323;exitY=0.972;exitDx=0;exitDy=0;exitPerimeter=0;" edge="1" parent="edMHtCI9T4lUfA1AtTfE-52" source="edMHtCI9T4lUfA1AtTfE-64" target="edMHtCI9T4lUfA1AtTfE-71">
          <mxGeometry relative="1" as="geometry">
            <mxPoint x="247" y="71" as="sourcePoint" />
            <Array as="points">
              <mxPoint x="246" y="131" />
              <mxPoint x="314" y="131" />
              <mxPoint x="314" y="155" />
            </Array>
          </mxGeometry>
        </mxCell>
        <mxCell id="edMHtCI9T4lUfA1AtTfE-57" style="edgeStyle=orthogonalEdgeStyle;shape=connector;rounded=0;orthogonalLoop=1;jettySize=auto;html=1;exitX=0.464;exitY=0.001;exitDx=0;exitDy=0;entryX=0.077;entryY=0.999;entryDx=0;entryDy=0;labelBackgroundColor=default;strokeColor=default;fontFamily=Poppins;fontSource=https%3A%2F%2Ffonts.googleapis.com%2Fcss%3Ffamily%3DPoppins;fontSize=8;fontColor=default;endArrow=classic;entryPerimeter=0;exitPerimeter=0;" edge="1" parent="edMHtCI9T4lUfA1AtTfE-52" source="edMHtCI9T4lUfA1AtTfE-71" target="edMHtCI9T4lUfA1AtTfE-65">
          <mxGeometry relative="1" as="geometry">
            <Array as="points">
              <mxPoint x="329" y="165" />
              <mxPoint x="328" y="165" />
            </Array>
          </mxGeometry>
        </mxCell>
        <mxCell id="edMHtCI9T4lUfA1AtTfE-58" style="edgeStyle=orthogonalEdgeStyle;rounded=0;orthogonalLoop=1;jettySize=auto;html=1;exitX=0.812;exitY=-0.006;exitDx=0;exitDy=0;entryX=0.5;entryY=1;entryDx=0;entryDy=0;exitPerimeter=0;" edge="1" parent="edMHtCI9T4lUfA1AtTfE-52" source="edMHtCI9T4lUfA1AtTfE-69" target="edMHtCI9T4lUfA1AtTfE-63">
          <mxGeometry relative="1" as="geometry">
            <Array as="points">
              <mxPoint x="162" y="171" />
              <mxPoint x="162" y="171" />
            </Array>
            <mxPoint x="167" y="155" as="sourcePoint" />
            <mxPoint x="235" y="60" as="targetPoint" />
          </mxGeometry>
        </mxCell>
        <mxCell id="edMHtCI9T4lUfA1AtTfE-59" value="Pegawai" style="swimlane;html=1;startSize=20;horizontal=0;fontFamily=Poppins;fontSource=https%3A%2F%2Ffonts.googleapis.com%2Fcss%3Ffamily%3DPoppins;" vertex="1" parent="edMHtCI9T4lUfA1AtTfE-52">
          <mxGeometry x="37" width="683" height="140" as="geometry" />
        </mxCell>
        <mxCell id="edMHtCI9T4lUfA1AtTfE-60" value="Mengunjungi Halaman Realisasi Kinerja" style="rounded=1;whiteSpace=wrap;html=1;labelBackgroundColor=none;fontSize=9;arcSize=10;spacingLeft=8;spacingRight=8;fontFamily=Poppins;fontSource=https%3A%2F%2Ffonts.googleapis.com%2Fcss%3Ffamily%3DPoppins;" vertex="1" parent="edMHtCI9T4lUfA1AtTfE-59">
          <mxGeometry x="80" y="5" width="90" height="60" as="geometry" />
        </mxCell>
        <mxCell id="edMHtCI9T4lUfA1AtTfE-61" style="edgeStyle=orthogonalEdgeStyle;rounded=0;orthogonalLoop=1;jettySize=auto;html=1;exitX=1;exitY=0.5;exitDx=0;exitDy=0;exitPerimeter=0;entryX=-0.007;entryY=0.438;entryDx=0;entryDy=0;entryPerimeter=0;" edge="1" parent="edMHtCI9T4lUfA1AtTfE-59" source="edMHtCI9T4lUfA1AtTfE-62" target="edMHtCI9T4lUfA1AtTfE-60">
          <mxGeometry relative="1" as="geometry">
            <Array as="points">
              <mxPoint x="60" y="31" />
              <mxPoint x="79" y="31" />
            </Array>
          </mxGeometry>
        </mxCell>
        <mxCell id="edMHtCI9T4lUfA1AtTfE-62" value="" style="strokeWidth=2;html=1;shape=mxgraph.flowchart.start_2;whiteSpace=wrap;fontSize=11;labelPosition=center;verticalLabelPosition=middle;align=center;verticalAlign=top;spacing=0;fillColor=#000000;strokeColor=#FF0000;" vertex="1" parent="edMHtCI9T4lUfA1AtTfE-59">
          <mxGeometry x="30.000000000000455" y="16" width="30" height="30" as="geometry" />
        </mxCell>
        <mxCell id="edMHtCI9T4lUfA1AtTfE-63" value="Memilih tugas yang ingin diunggah realisasinya" style="rounded=1;whiteSpace=wrap;html=1;labelBackgroundColor=none;fontSize=9;arcSize=10;spacingLeft=8;spacingRight=8;fontFamily=Poppins;fontSource=https%3A%2F%2Ffonts.googleapis.com%2Fcss%3Ffamily%3DPoppins;" vertex="1" parent="edMHtCI9T4lUfA1AtTfE-59">
          <mxGeometry x="80" y="70" width="90" height="60" as="geometry" />
        </mxCell>
        <mxCell id="edMHtCI9T4lUfA1AtTfE-64" value="Menekan tombol unggah realisasi" style="rounded=1;whiteSpace=wrap;html=1;labelBackgroundColor=none;fontSize=9;arcSize=10;spacingLeft=8;spacingRight=8;fontFamily=Poppins;fontSource=https%3A%2F%2Ffonts.googleapis.com%2Fcss%3Ffamily%3DPoppins;" vertex="1" parent="edMHtCI9T4lUfA1AtTfE-59">
          <mxGeometry x="180" y="36" width="90" height="60" as="geometry" />
        </mxCell>
        <mxCell id="edMHtCI9T4lUfA1AtTfE-65" value="Mengunggah file yang sesuai" style="rounded=1;whiteSpace=wrap;html=1;labelBackgroundColor=none;fontSize=9;arcSize=10;spacingLeft=8;spacingRight=8;fontFamily=Poppins;fontSource=https%3A%2F%2Ffonts.googleapis.com%2Fcss%3Ffamily%3DPoppins;" vertex="1" parent="edMHtCI9T4lUfA1AtTfE-59">
          <mxGeometry x="284" y="5" width="90" height="60" as="geometry" />
        </mxCell>
        <mxCell id="edMHtCI9T4lUfA1AtTfE-66" value="Menekan tombol unggah" style="rounded=1;whiteSpace=wrap;html=1;labelBackgroundColor=none;fontSize=9;arcSize=10;spacingLeft=8;spacingRight=8;fontFamily=Poppins;fontSource=https%3A%2F%2Ffonts.googleapis.com%2Fcss%3Ffamily%3DPoppins;" vertex="1" parent="edMHtCI9T4lUfA1AtTfE-59">
          <mxGeometry x="374" y="70" width="90" height="60" as="geometry" />
        </mxCell>
        <mxCell id="edMHtCI9T4lUfA1AtTfE-67" style="edgeStyle=orthogonalEdgeStyle;shape=connector;rounded=0;orthogonalLoop=1;jettySize=auto;html=1;exitX=1;exitY=0.5;exitDx=0;exitDy=0;entryX=0.75;entryY=0;entryDx=0;entryDy=0;labelBackgroundColor=default;strokeColor=default;fontFamily=Poppins;fontSource=https%3A%2F%2Ffonts.googleapis.com%2Fcss%3Ffamily%3DPoppins;fontSize=8;fontColor=default;endArrow=classic;" edge="1" parent="edMHtCI9T4lUfA1AtTfE-59" source="edMHtCI9T4lUfA1AtTfE-65" target="edMHtCI9T4lUfA1AtTfE-66">
          <mxGeometry relative="1" as="geometry" />
        </mxCell>
        <mxCell id="edMHtCI9T4lUfA1AtTfE-68" value="Sistem" style="swimlane;html=1;startSize=20;horizontal=0;fontFamily=Poppins;fontSource=https%3A%2F%2Ffonts.googleapis.com%2Fcss%3Ffamily%3DPoppins;" vertex="1" parent="edMHtCI9T4lUfA1AtTfE-52">
          <mxGeometry x="37" y="140" width="683" height="150" as="geometry" />
        </mxCell>
        <mxCell id="edMHtCI9T4lUfA1AtTfE-69" value="Menampilkan Halaman Realisasi Kinerja" style="rounded=1;whiteSpace=wrap;html=1;labelBackgroundColor=none;fontSize=9;arcSize=10;spacingLeft=8;spacingRight=8;fontFamily=Poppins;fontSource=https%3A%2F%2Ffonts.googleapis.com%2Fcss%3Ffamily%3DPoppins;" vertex="1" parent="edMHtCI9T4lUfA1AtTfE-68">
          <mxGeometry x="52" y="45" width="90" height="60" as="geometry" />
        </mxCell>
        <mxCell id="edMHtCI9T4lUfA1AtTfE-70" value="Menampilkan detail tugas" style="rounded=1;whiteSpace=wrap;html=1;labelBackgroundColor=none;fontSize=9;arcSize=10;spacingLeft=8;spacingRight=8;fontFamily=Poppins;fontSource=https%3A%2F%2Ffonts.googleapis.com%2Fcss%3Ffamily%3DPoppins;" vertex="1" parent="edMHtCI9T4lUfA1AtTfE-68">
          <mxGeometry x="150" y="45" width="90" height="60" as="geometry" />
        </mxCell>
        <mxCell id="edMHtCI9T4lUfA1AtTfE-71" value="Menampilkan&amp;nbsp; form upload" style="rounded=1;whiteSpace=wrap;html=1;labelBackgroundColor=none;fontSize=9;arcSize=10;spacingLeft=8;spacingRight=8;fontFamily=Poppins;fontSource=https%3A%2F%2Ffonts.googleapis.com%2Fcss%3Ffamily%3DPoppins;" vertex="1" parent="edMHtCI9T4lUfA1AtTfE-68">
          <mxGeometry x="254" y="15" width="90" height="60" as="geometry" />
        </mxCell>
        <mxCell id="edMHtCI9T4lUfA1AtTfE-72" style="edgeStyle=orthogonalEdgeStyle;rounded=0;orthogonalLoop=1;jettySize=auto;html=1;exitX=0.5;exitY=1;exitDx=0;exitDy=0;entryX=0.5;entryY=0;entryDx=0;entryDy=0;fontSize=12;startSize=8;endSize=8;" edge="1" parent="edMHtCI9T4lUfA1AtTfE-68" source="edMHtCI9T4lUfA1AtTfE-73" target="edMHtCI9T4lUfA1AtTfE-74">
          <mxGeometry relative="1" as="geometry">
            <Array as="points">
              <mxPoint x="545" y="61" />
              <mxPoint x="545" y="61" />
            </Array>
          </mxGeometry>
        </mxCell>
        <mxCell id="edMHtCI9T4lUfA1AtTfE-73" value="Menyimpan file pada server dan memperbarui database" style="rounded=1;whiteSpace=wrap;html=1;labelBackgroundColor=none;fontSize=9;arcSize=10;spacingLeft=8;spacingRight=8;fontFamily=Poppins;fontSource=https%3A%2F%2Ffonts.googleapis.com%2Fcss%3Ffamily%3DPoppins;" vertex="1" parent="edMHtCI9T4lUfA1AtTfE-68">
          <mxGeometry x="517" y="3" width="90" height="60" as="geometry" />
        </mxCell>
        <mxCell id="edMHtCI9T4lUfA1AtTfE-74" value="Mengarahkan ke halaman detail tugas dengan pesan berhasil" style="rounded=1;whiteSpace=wrap;html=1;labelBackgroundColor=none;fontSize=8;arcSize=10;spacingLeft=8;spacingRight=8;fontFamily=Poppins;fontSource=https%3A%2F%2Ffonts.googleapis.com%2Fcss%3Ffamily%3DPoppins;" vertex="1" parent="edMHtCI9T4lUfA1AtTfE-68">
          <mxGeometry x="517" y="82" width="90" height="60" as="geometry" />
        </mxCell>
        <mxCell id="edMHtCI9T4lUfA1AtTfE-75" value="file tidak&lt;br&gt;sesuai" style="edgeStyle=orthogonalEdgeStyle;shape=connector;rounded=0;orthogonalLoop=1;jettySize=auto;html=1;exitX=0.5;exitY=1;exitDx=0;exitDy=0;entryX=1;entryY=0.75;entryDx=0;entryDy=0;labelBackgroundColor=default;strokeColor=default;fontFamily=Poppins;fontSource=https%3A%2F%2Ffonts.googleapis.com%2Fcss%3Ffamily%3DPoppins;fontSize=8;fontColor=default;endArrow=classic;" edge="1" parent="edMHtCI9T4lUfA1AtTfE-68" source="edMHtCI9T4lUfA1AtTfE-77" target="edMHtCI9T4lUfA1AtTfE-78">
          <mxGeometry x="0.3333" y="-16" relative="1" as="geometry">
            <mxPoint as="offset" />
          </mxGeometry>
        </mxCell>
        <mxCell id="edMHtCI9T4lUfA1AtTfE-76" value="file&lt;br&gt;sesuai" style="edgeStyle=orthogonalEdgeStyle;shape=connector;rounded=0;orthogonalLoop=1;jettySize=auto;html=1;exitX=1;exitY=0.5;exitDx=0;exitDy=0;entryX=0;entryY=0.5;entryDx=0;entryDy=0;labelBackgroundColor=default;strokeColor=default;fontFamily=Poppins;fontSource=https%3A%2F%2Ffonts.googleapis.com%2Fcss%3Ffamily%3DPoppins;fontSize=8;fontColor=default;endArrow=classic;" edge="1" parent="edMHtCI9T4lUfA1AtTfE-68" source="edMHtCI9T4lUfA1AtTfE-77" target="edMHtCI9T4lUfA1AtTfE-73">
          <mxGeometry x="-0.6078" y="-14" relative="1" as="geometry">
            <mxPoint as="offset" />
          </mxGeometry>
        </mxCell>
        <mxCell id="edMHtCI9T4lUfA1AtTfE-77" value="" style="rhombus;whiteSpace=wrap;html=1;fontSize=11;fontFamily=Poppins;fontSource=https%3A%2F%2Ffonts.googleapis.com%2Fcss%3Ffamily%3DPoppins;" vertex="1" parent="edMHtCI9T4lUfA1AtTfE-68">
          <mxGeometry x="404.00000000000045" y="52" width="30" height="30" as="geometry" />
        </mxCell>
        <mxCell id="edMHtCI9T4lUfA1AtTfE-78" value="Menampilkan&amp;nbsp; form upload dengan pesan error" style="rounded=1;whiteSpace=wrap;html=1;labelBackgroundColor=none;fontSize=9;arcSize=10;spacingLeft=8;spacingRight=8;fontFamily=Poppins;fontSource=https%3A%2F%2Ffonts.googleapis.com%2Fcss%3Ffamily%3DPoppins;" vertex="1" parent="edMHtCI9T4lUfA1AtTfE-68">
          <mxGeometry x="254" y="82" width="90" height="60" as="geometry" />
        </mxCell>
        <mxCell id="edMHtCI9T4lUfA1AtTfE-79" value="" style="ellipse;html=1;shape=endState;strokeWidth=1;fontSize=11;fillColor=#000000;strokeColor=#FF0000;" vertex="1" parent="edMHtCI9T4lUfA1AtTfE-68">
          <mxGeometry x="630" y="91" width="40" height="40" as="geometry" />
        </mxCell>
        <mxCell id="edMHtCI9T4lUfA1AtTfE-80" style="edgeStyle=orthogonalEdgeStyle;shape=connector;rounded=0;orthogonalLoop=1;jettySize=auto;html=1;exitX=1;exitY=0.5;exitDx=0;exitDy=0;entryX=0;entryY=0.5;entryDx=0;entryDy=0;labelBackgroundColor=default;strokeColor=default;fontFamily=Poppins;fontSource=https%3A%2F%2Ffonts.googleapis.com%2Fcss%3Ffamily%3DPoppins;fontSize=8;fontColor=default;endArrow=classic;" edge="1" parent="edMHtCI9T4lUfA1AtTfE-68" source="edMHtCI9T4lUfA1AtTfE-74" target="edMHtCI9T4lUfA1AtTfE-79">
          <mxGeometry relative="1" as="geometry">
            <mxPoint x="607" y="282" as="sourcePoint" />
            <Array as="points">
              <mxPoint x="607" y="111" />
            </Array>
          </mxGeometry>
        </mxCell>
        <mxCell id="edMHtCI9T4lUfA1AtTfE-81" style="edgeStyle=orthogonalEdgeStyle;shape=connector;rounded=0;orthogonalLoop=1;jettySize=auto;html=1;exitX=0.5;exitY=1;exitDx=0;exitDy=0;entryX=0.5;entryY=0;entryDx=0;entryDy=0;labelBackgroundColor=default;strokeColor=default;fontFamily=Poppins;fontSource=https%3A%2F%2Ffonts.googleapis.com%2Fcss%3Ffamily%3DPoppins;fontSize=8;fontColor=default;endArrow=classic;" edge="1" parent="edMHtCI9T4lUfA1AtTfE-52" source="edMHtCI9T4lUfA1AtTfE-66" target="edMHtCI9T4lUfA1AtTfE-77">
          <mxGeometry relative="1" as="geometry" />
        </mxCell>
        <mxCell id="edMHtCI9T4lUfA1AtTfE-82" style="edgeStyle=orthogonalEdgeStyle;shape=connector;rounded=0;orthogonalLoop=1;jettySize=auto;html=1;exitX=1;exitY=0.25;exitDx=0;exitDy=0;entryX=0.75;entryY=1;entryDx=0;entryDy=0;labelBackgroundColor=default;strokeColor=default;fontFamily=Poppins;fontSource=https%3A%2F%2Ffonts.googleapis.com%2Fcss%3Ffamily%3DPoppins;fontSize=8;fontColor=default;endArrow=classic;" edge="1" parent="edMHtCI9T4lUfA1AtTfE-52" source="edMHtCI9T4lUfA1AtTfE-78" target="edMHtCI9T4lUfA1AtTfE-65">
          <mxGeometry relative="1" as="geometry">
            <Array as="points">
              <mxPoint x="389" y="237" />
              <mxPoint x="389" y="144" />
              <mxPoint x="389" y="144" />
            </Array>
          </mxGeometry>
        </mxCell>
        <mxCell id="P8Wr75xWvBKYW4Y8qCre-53" value="2.2 Menyetujui Realisasi Kinerja" style="swimlane;html=1;childLayout=stackLayout;resizeParent=1;resizeParentMax=0;horizontal=0;startSize=37;horizontalStack=0;whiteSpace=wrap;fontSize=11;fontFamily=Poppins;fontSource=https%3A%2F%2Ffonts.googleapis.com%2Fcss%3Ffamily%3DPoppins;spacing=6;spacingTop=4;spacingLeft=6;spacingRight=6;" vertex="1" parent="1">
          <mxGeometry x="760" y="-760" width="720" height="240" as="geometry" />
        </mxCell>
        <mxCell id="P8Wr75xWvBKYW4Y8qCre-54" style="edgeStyle=orthogonalEdgeStyle;rounded=0;orthogonalLoop=1;jettySize=auto;html=1;exitX=-0.001;exitY=0.765;exitDx=0;exitDy=0;entryX=0.098;entryY=0.017;entryDx=0;entryDy=0;entryPerimeter=0;exitPerimeter=0;" edge="1" parent="P8Wr75xWvBKYW4Y8qCre-53" source="P8Wr75xWvBKYW4Y8qCre-59" target="P8Wr75xWvBKYW4Y8qCre-74">
          <mxGeometry relative="1" as="geometry">
            <Array as="points">
              <mxPoint x="98" y="51" />
            </Array>
          </mxGeometry>
        </mxCell>
        <mxCell id="P8Wr75xWvBKYW4Y8qCre-55" style="edgeStyle=orthogonalEdgeStyle;rounded=0;orthogonalLoop=1;jettySize=auto;html=1;exitX=0.75;exitY=1;exitDx=0;exitDy=0;entryX=0.25;entryY=0;entryDx=0;entryDy=0;" edge="1" parent="P8Wr75xWvBKYW4Y8qCre-53" source="P8Wr75xWvBKYW4Y8qCre-62" target="P8Wr75xWvBKYW4Y8qCre-75">
          <mxGeometry relative="1" as="geometry">
            <Array as="points">
              <mxPoint x="185" y="151" />
              <mxPoint x="210" y="151" />
            </Array>
          </mxGeometry>
        </mxCell>
        <mxCell id="P8Wr75xWvBKYW4Y8qCre-56" style="edgeStyle=orthogonalEdgeStyle;rounded=0;orthogonalLoop=1;jettySize=auto;html=1;exitX=0.5;exitY=0;exitDx=0;exitDy=0;entryX=0.175;entryY=1.004;entryDx=0;entryDy=0;entryPerimeter=0;" edge="1" parent="P8Wr75xWvBKYW4Y8qCre-53" source="P8Wr75xWvBKYW4Y8qCre-75" target="P8Wr75xWvBKYW4Y8qCre-63">
          <mxGeometry relative="1" as="geometry" />
        </mxCell>
        <mxCell id="P8Wr75xWvBKYW4Y8qCre-57" style="edgeStyle=orthogonalEdgeStyle;rounded=0;orthogonalLoop=1;jettySize=auto;html=1;exitX=0.812;exitY=-0.006;exitDx=0;exitDy=0;entryX=0.5;entryY=1;entryDx=0;entryDy=0;exitPerimeter=0;" edge="1" parent="P8Wr75xWvBKYW4Y8qCre-53" source="P8Wr75xWvBKYW4Y8qCre-74" target="P8Wr75xWvBKYW4Y8qCre-62">
          <mxGeometry relative="1" as="geometry">
            <Array as="points">
              <mxPoint x="162" y="171" />
              <mxPoint x="162" y="171" />
            </Array>
            <mxPoint x="167" y="155" as="sourcePoint" />
            <mxPoint x="235" y="60" as="targetPoint" />
          </mxGeometry>
        </mxCell>
        <mxCell id="P8Wr75xWvBKYW4Y8qCre-58" value="Ketua Tim Kerja" style="swimlane;html=1;startSize=20;horizontal=0;fontFamily=Poppins;fontSource=https%3A%2F%2Ffonts.googleapis.com%2Fcss%3Ffamily%3DPoppins;" vertex="1" parent="P8Wr75xWvBKYW4Y8qCre-53">
          <mxGeometry x="37" width="683" height="140" as="geometry">
            <mxRectangle x="37" width="683" height="30" as="alternateBounds" />
          </mxGeometry>
        </mxCell>
        <mxCell id="P8Wr75xWvBKYW4Y8qCre-59" value="Mengunjungi Halaman Realisasi Kinerja" style="rounded=1;whiteSpace=wrap;html=1;labelBackgroundColor=none;fontSize=9;arcSize=10;spacingLeft=8;spacingRight=8;fontFamily=Poppins;fontSource=https%3A%2F%2Ffonts.googleapis.com%2Fcss%3Ffamily%3DPoppins;" vertex="1" parent="P8Wr75xWvBKYW4Y8qCre-58">
          <mxGeometry x="80" y="5" width="90" height="60" as="geometry" />
        </mxCell>
        <mxCell id="P8Wr75xWvBKYW4Y8qCre-60" style="edgeStyle=orthogonalEdgeStyle;rounded=0;orthogonalLoop=1;jettySize=auto;html=1;exitX=1;exitY=0.5;exitDx=0;exitDy=0;exitPerimeter=0;entryX=-0.007;entryY=0.438;entryDx=0;entryDy=0;entryPerimeter=0;" edge="1" parent="P8Wr75xWvBKYW4Y8qCre-58" source="P8Wr75xWvBKYW4Y8qCre-61" target="P8Wr75xWvBKYW4Y8qCre-59">
          <mxGeometry relative="1" as="geometry">
            <Array as="points">
              <mxPoint x="60" y="31" />
              <mxPoint x="79" y="31" />
            </Array>
          </mxGeometry>
        </mxCell>
        <mxCell id="P8Wr75xWvBKYW4Y8qCre-61" value="" style="strokeWidth=2;html=1;shape=mxgraph.flowchart.start_2;whiteSpace=wrap;fontSize=11;labelPosition=center;verticalLabelPosition=middle;align=center;verticalAlign=top;spacing=0;fillColor=#000000;strokeColor=#FF0000;" vertex="1" parent="P8Wr75xWvBKYW4Y8qCre-58">
          <mxGeometry x="30.000000000000455" y="16" width="30" height="30" as="geometry" />
        </mxCell>
        <mxCell id="P8Wr75xWvBKYW4Y8qCre-62" value="Memilih tugas yang ingin dicek realisasinya" style="rounded=1;whiteSpace=wrap;html=1;labelBackgroundColor=none;fontSize=9;arcSize=10;spacingLeft=8;spacingRight=8;fontFamily=Poppins;fontSource=https%3A%2F%2Ffonts.googleapis.com%2Fcss%3Ffamily%3DPoppins;" vertex="1" parent="P8Wr75xWvBKYW4Y8qCre-58">
          <mxGeometry x="80" y="70" width="90" height="60" as="geometry" />
        </mxCell>
        <mxCell id="P8Wr75xWvBKYW4Y8qCre-63" value="Memilih realisasi kinerja yang akan dicek" style="rounded=1;whiteSpace=wrap;html=1;labelBackgroundColor=none;fontSize=9;arcSize=10;spacingLeft=8;spacingRight=8;fontFamily=Poppins;fontSource=https%3A%2F%2Ffonts.googleapis.com%2Fcss%3Ffamily%3DPoppins;" vertex="1" parent="P8Wr75xWvBKYW4Y8qCre-58">
          <mxGeometry x="180" y="5" width="90" height="60" as="geometry" />
        </mxCell>
        <mxCell id="P8Wr75xWvBKYW4Y8qCre-64" value="Mengecek realisasi" style="rounded=1;whiteSpace=wrap;html=1;labelBackgroundColor=none;fontSize=9;arcSize=10;spacingLeft=8;spacingRight=8;fontFamily=Poppins;fontSource=https%3A%2F%2Ffonts.googleapis.com%2Fcss%3Ffamily%3DPoppins;" vertex="1" parent="P8Wr75xWvBKYW4Y8qCre-58">
          <mxGeometry x="284" y="5" width="90" height="60" as="geometry" />
        </mxCell>
        <mxCell id="P8Wr75xWvBKYW4Y8qCre-65" value="Menekan tombol setujui" style="rounded=1;whiteSpace=wrap;html=1;labelBackgroundColor=none;fontSize=9;arcSize=10;spacingLeft=8;spacingRight=8;fontFamily=Poppins;fontSource=https%3A%2F%2Ffonts.googleapis.com%2Fcss%3Ffamily%3DPoppins;" vertex="1" parent="P8Wr75xWvBKYW4Y8qCre-58">
          <mxGeometry x="374" y="70" width="90" height="60" as="geometry" />
        </mxCell>
        <mxCell id="P8Wr75xWvBKYW4Y8qCre-66" style="edgeStyle=orthogonalEdgeStyle;shape=connector;rounded=0;orthogonalLoop=1;jettySize=auto;html=1;exitX=1;exitY=0.5;exitDx=0;exitDy=0;entryX=0;entryY=0.5;entryDx=0;entryDy=0;labelBackgroundColor=default;strokeColor=default;fontFamily=Poppins;fontSource=https%3A%2F%2Ffonts.googleapis.com%2Fcss%3Ffamily%3DPoppins;fontSize=8;fontColor=default;endArrow=classic;" edge="1" parent="P8Wr75xWvBKYW4Y8qCre-58" source="P8Wr75xWvBKYW4Y8qCre-64" target="P8Wr75xWvBKYW4Y8qCre-71">
          <mxGeometry relative="1" as="geometry">
            <Array as="points">
              <mxPoint x="374" y="25" />
            </Array>
          </mxGeometry>
        </mxCell>
        <mxCell id="P8Wr75xWvBKYW4Y8qCre-67" value="Menekan tombol detail" style="rounded=1;whiteSpace=wrap;html=1;labelBackgroundColor=none;fontSize=9;arcSize=10;spacingLeft=8;spacingRight=8;fontFamily=Poppins;fontSource=https%3A%2F%2Ffonts.googleapis.com%2Fcss%3Ffamily%3DPoppins;" vertex="1" parent="P8Wr75xWvBKYW4Y8qCre-58">
          <mxGeometry x="230" y="70" width="90" height="60" as="geometry" />
        </mxCell>
        <mxCell id="P8Wr75xWvBKYW4Y8qCre-68" style="edgeStyle=orthogonalEdgeStyle;rounded=0;orthogonalLoop=1;jettySize=auto;html=1;entryX=0;entryY=0.5;entryDx=0;entryDy=0;fontSize=12;startSize=8;endSize=8;exitX=0.323;exitY=1.016;exitDx=0;exitDy=0;exitPerimeter=0;" edge="1" parent="P8Wr75xWvBKYW4Y8qCre-58" source="P8Wr75xWvBKYW4Y8qCre-63" target="P8Wr75xWvBKYW4Y8qCre-67">
          <mxGeometry relative="1" as="geometry">
            <mxPoint x="210" y="71" as="sourcePoint" />
            <Array as="points">
              <mxPoint x="209" y="100" />
            </Array>
          </mxGeometry>
        </mxCell>
        <mxCell id="P8Wr75xWvBKYW4Y8qCre-69" value="sesuai" style="edgeStyle=orthogonalEdgeStyle;shape=connector;rounded=0;orthogonalLoop=1;jettySize=auto;html=1;exitX=0.5;exitY=1;exitDx=0;exitDy=0;entryX=0.5;entryY=0;entryDx=0;entryDy=0;labelBackgroundColor=default;strokeColor=default;fontFamily=Poppins;fontSource=https%3A%2F%2Ffonts.googleapis.com%2Fcss%3Ffamily%3DPoppins;fontSize=8;fontColor=default;endArrow=classic;" edge="1" parent="P8Wr75xWvBKYW4Y8qCre-58" source="P8Wr75xWvBKYW4Y8qCre-71" target="P8Wr75xWvBKYW4Y8qCre-65">
          <mxGeometry relative="1" as="geometry" />
        </mxCell>
        <mxCell id="P8Wr75xWvBKYW4Y8qCre-70" value="Tidak&lt;br&gt;sesuai" style="edgeStyle=orthogonalEdgeStyle;shape=connector;rounded=0;orthogonalLoop=1;jettySize=auto;html=1;exitX=1;exitY=0.5;exitDx=0;exitDy=0;entryX=0.01;entryY=0.337;entryDx=0;entryDy=0;entryPerimeter=0;labelBackgroundColor=default;strokeColor=default;fontFamily=Poppins;fontSource=https%3A%2F%2Ffonts.googleapis.com%2Fcss%3Ffamily%3DPoppins;fontSize=8;fontColor=default;endArrow=classic;" edge="1" parent="P8Wr75xWvBKYW4Y8qCre-58" source="P8Wr75xWvBKYW4Y8qCre-71" target="P8Wr75xWvBKYW4Y8qCre-72">
          <mxGeometry x="-0.2171" y="5" relative="1" as="geometry">
            <mxPoint as="offset" />
          </mxGeometry>
        </mxCell>
        <mxCell id="P8Wr75xWvBKYW4Y8qCre-71" value="" style="rhombus;whiteSpace=wrap;html=1;fontSize=11;fontFamily=Poppins;fontSource=https%3A%2F%2Ffonts.googleapis.com%2Fcss%3Ffamily%3DPoppins;" vertex="1" parent="P8Wr75xWvBKYW4Y8qCre-58">
          <mxGeometry x="404.00000000000045" y="10" width="30" height="30" as="geometry" />
        </mxCell>
        <mxCell id="P8Wr75xWvBKYW4Y8qCre-72" value="Menekan tombol kembalikan" style="rounded=1;whiteSpace=wrap;html=1;labelBackgroundColor=none;fontSize=9;arcSize=10;spacingLeft=8;spacingRight=8;fontFamily=Poppins;fontSource=https%3A%2F%2Ffonts.googleapis.com%2Fcss%3Ffamily%3DPoppins;" vertex="1" parent="P8Wr75xWvBKYW4Y8qCre-58">
          <mxGeometry x="484" y="5" width="90" height="60" as="geometry" />
        </mxCell>
        <mxCell id="P8Wr75xWvBKYW4Y8qCre-73" value="Sistem" style="swimlane;html=1;startSize=20;horizontal=0;fontFamily=Poppins;fontSource=https%3A%2F%2Ffonts.googleapis.com%2Fcss%3Ffamily%3DPoppins;" vertex="1" parent="P8Wr75xWvBKYW4Y8qCre-53">
          <mxGeometry x="37" y="140" width="683" height="100" as="geometry" />
        </mxCell>
        <mxCell id="P8Wr75xWvBKYW4Y8qCre-74" value="Menampilkan Halaman Setujui Rencana Kinerja" style="rounded=1;whiteSpace=wrap;html=1;labelBackgroundColor=none;fontSize=9;arcSize=10;spacingLeft=8;spacingRight=8;fontFamily=Poppins;fontSource=https%3A%2F%2Ffonts.googleapis.com%2Fcss%3Ffamily%3DPoppins;" vertex="1" parent="P8Wr75xWvBKYW4Y8qCre-73">
          <mxGeometry x="52" y="22" width="90" height="60" as="geometry" />
        </mxCell>
        <mxCell id="P8Wr75xWvBKYW4Y8qCre-75" value="Menampilkan detail tugas" style="rounded=1;whiteSpace=wrap;html=1;labelBackgroundColor=none;fontSize=9;arcSize=10;spacingLeft=8;spacingRight=8;fontFamily=Poppins;fontSource=https%3A%2F%2Ffonts.googleapis.com%2Fcss%3Ffamily%3DPoppins;" vertex="1" parent="P8Wr75xWvBKYW4Y8qCre-73">
          <mxGeometry x="150" y="22" width="90" height="60" as="geometry" />
        </mxCell>
        <mxCell id="P8Wr75xWvBKYW4Y8qCre-76" style="edgeStyle=orthogonalEdgeStyle;rounded=0;orthogonalLoop=1;jettySize=auto;html=1;exitX=1;exitY=0.5;exitDx=0;exitDy=0;entryX=0;entryY=0.5;entryDx=0;entryDy=0;fontSize=12;startSize=8;endSize=8;" edge="1" parent="P8Wr75xWvBKYW4Y8qCre-73" source="P8Wr75xWvBKYW4Y8qCre-77" target="P8Wr75xWvBKYW4Y8qCre-78">
          <mxGeometry relative="1" as="geometry">
            <Array as="points">
              <mxPoint x="474" y="52" />
              <mxPoint x="474" y="52" />
            </Array>
          </mxGeometry>
        </mxCell>
        <mxCell id="P8Wr75xWvBKYW4Y8qCre-77" value="Memperbarui data pada &lt;i&gt;database&lt;/i&gt;" style="rounded=1;whiteSpace=wrap;html=1;labelBackgroundColor=none;fontSize=9;arcSize=10;spacingLeft=8;spacingRight=8;fontFamily=Poppins;fontSource=https%3A%2F%2Ffonts.googleapis.com%2Fcss%3Ffamily%3DPoppins;" vertex="1" parent="P8Wr75xWvBKYW4Y8qCre-73">
          <mxGeometry x="374" y="22" width="90" height="60" as="geometry" />
        </mxCell>
        <mxCell id="P8Wr75xWvBKYW4Y8qCre-78" value="Mengarahkan ke halaman detail tugas dengan pesan berhasil" style="rounded=1;whiteSpace=wrap;html=1;labelBackgroundColor=none;fontSize=8;arcSize=10;spacingLeft=8;spacingRight=8;fontFamily=Poppins;fontSource=https%3A%2F%2Ffonts.googleapis.com%2Fcss%3Ffamily%3DPoppins;" vertex="1" parent="P8Wr75xWvBKYW4Y8qCre-73">
          <mxGeometry x="524" y="22" width="90" height="60" as="geometry" />
        </mxCell>
        <mxCell id="P8Wr75xWvBKYW4Y8qCre-79" value="" style="ellipse;html=1;shape=endState;strokeWidth=1;fontSize=11;fillColor=#000000;strokeColor=#FF0000;" vertex="1" parent="P8Wr75xWvBKYW4Y8qCre-73">
          <mxGeometry x="634" y="30" width="40" height="40" as="geometry" />
        </mxCell>
        <mxCell id="P8Wr75xWvBKYW4Y8qCre-80" style="edgeStyle=orthogonalEdgeStyle;shape=connector;rounded=0;orthogonalLoop=1;jettySize=auto;html=1;exitX=1;exitY=0.5;exitDx=0;exitDy=0;entryX=0;entryY=0.5;entryDx=0;entryDy=0;labelBackgroundColor=default;strokeColor=default;fontFamily=Poppins;fontSource=https%3A%2F%2Ffonts.googleapis.com%2Fcss%3Ffamily%3DPoppins;fontSize=8;fontColor=default;endArrow=classic;" edge="1" parent="P8Wr75xWvBKYW4Y8qCre-73" source="P8Wr75xWvBKYW4Y8qCre-78" target="P8Wr75xWvBKYW4Y8qCre-79">
          <mxGeometry relative="1" as="geometry">
            <mxPoint x="607" y="282" as="sourcePoint" />
            <Array as="points">
              <mxPoint x="614" y="50" />
            </Array>
          </mxGeometry>
        </mxCell>
        <mxCell id="P8Wr75xWvBKYW4Y8qCre-81" value="Menampilkan detail realisasi" style="rounded=1;whiteSpace=wrap;html=1;labelBackgroundColor=none;fontSize=9;arcSize=10;spacingLeft=8;spacingRight=8;fontFamily=Poppins;fontSource=https%3A%2F%2Ffonts.googleapis.com%2Fcss%3Ffamily%3DPoppins;" vertex="1" parent="P8Wr75xWvBKYW4Y8qCre-73">
          <mxGeometry x="254" y="22" width="90" height="60" as="geometry" />
        </mxCell>
        <mxCell id="P8Wr75xWvBKYW4Y8qCre-82" style="edgeStyle=orthogonalEdgeStyle;shape=connector;rounded=0;orthogonalLoop=1;jettySize=auto;html=1;exitX=0.75;exitY=1;exitDx=0;exitDy=0;entryX=0.5;entryY=0;entryDx=0;entryDy=0;labelBackgroundColor=default;strokeColor=default;fontFamily=Poppins;fontSource=https%3A%2F%2Ffonts.googleapis.com%2Fcss%3Ffamily%3DPoppins;fontSize=8;fontColor=default;endArrow=classic;" edge="1" parent="P8Wr75xWvBKYW4Y8qCre-53" source="P8Wr75xWvBKYW4Y8qCre-67" target="P8Wr75xWvBKYW4Y8qCre-81">
          <mxGeometry relative="1" as="geometry" />
        </mxCell>
        <mxCell id="P8Wr75xWvBKYW4Y8qCre-83" style="edgeStyle=orthogonalEdgeStyle;shape=connector;rounded=0;orthogonalLoop=1;jettySize=auto;html=1;exitX=0.75;exitY=0;exitDx=0;exitDy=0;labelBackgroundColor=default;strokeColor=default;fontFamily=Poppins;fontSource=https%3A%2F%2Ffonts.googleapis.com%2Fcss%3Ffamily%3DPoppins;fontSize=8;fontColor=default;endArrow=classic;" edge="1" parent="P8Wr75xWvBKYW4Y8qCre-53" source="P8Wr75xWvBKYW4Y8qCre-81" target="P8Wr75xWvBKYW4Y8qCre-64">
          <mxGeometry relative="1" as="geometry">
            <Array as="points">
              <mxPoint x="366" y="150" />
            </Array>
          </mxGeometry>
        </mxCell>
        <mxCell id="P8Wr75xWvBKYW4Y8qCre-84" style="edgeStyle=orthogonalEdgeStyle;shape=connector;rounded=0;orthogonalLoop=1;jettySize=auto;html=1;exitX=0.5;exitY=1;exitDx=0;exitDy=0;entryX=0.5;entryY=0;entryDx=0;entryDy=0;labelBackgroundColor=default;strokeColor=default;fontFamily=Poppins;fontSource=https%3A%2F%2Ffonts.googleapis.com%2Fcss%3Ffamily%3DPoppins;fontSize=8;fontColor=default;endArrow=classic;" edge="1" parent="P8Wr75xWvBKYW4Y8qCre-53" source="P8Wr75xWvBKYW4Y8qCre-65" target="P8Wr75xWvBKYW4Y8qCre-77">
          <mxGeometry relative="1" as="geometry" />
        </mxCell>
        <mxCell id="P8Wr75xWvBKYW4Y8qCre-85" style="edgeStyle=orthogonalEdgeStyle;shape=connector;rounded=0;orthogonalLoop=1;jettySize=auto;html=1;exitX=0.25;exitY=1;exitDx=0;exitDy=0;entryX=1;entryY=0.25;entryDx=0;entryDy=0;labelBackgroundColor=default;strokeColor=default;fontFamily=Poppins;fontSource=https%3A%2F%2Ffonts.googleapis.com%2Fcss%3Ffamily%3DPoppins;fontSize=8;fontColor=default;endArrow=classic;" edge="1" parent="P8Wr75xWvBKYW4Y8qCre-53" source="P8Wr75xWvBKYW4Y8qCre-72" target="P8Wr75xWvBKYW4Y8qCre-77">
          <mxGeometry relative="1" as="geometry" />
        </mxCell>
        <mxCell id="JxUC8-nC2UB_euBRExet-131" value="2.3 Menampilkan Status Rencana Kerja" style="swimlane;html=1;childLayout=stackLayout;resizeParent=1;resizeParentMax=0;horizontal=0;startSize=37;horizontalStack=0;whiteSpace=wrap;fontSize=11;fontFamily=Poppins;fontSource=https%3A%2F%2Ffonts.googleapis.com%2Fcss%3Ffamily%3DPoppins;spacing=6;spacingTop=4;spacingLeft=6;spacingRight=6;" vertex="1" parent="1">
          <mxGeometry x="760" y="-480" width="720" height="240" as="geometry" />
        </mxCell>
        <mxCell id="JxUC8-nC2UB_euBRExet-132" style="edgeStyle=orthogonalEdgeStyle;rounded=0;orthogonalLoop=1;jettySize=auto;html=1;exitX=-0.001;exitY=0.765;exitDx=0;exitDy=0;entryX=0.098;entryY=0.017;entryDx=0;entryDy=0;entryPerimeter=0;exitPerimeter=0;" edge="1" parent="JxUC8-nC2UB_euBRExet-131" source="JxUC8-nC2UB_euBRExet-137" target="JxUC8-nC2UB_euBRExet-152">
          <mxGeometry relative="1" as="geometry">
            <Array as="points">
              <mxPoint x="98" y="51" />
            </Array>
          </mxGeometry>
        </mxCell>
        <mxCell id="JxUC8-nC2UB_euBRExet-136" value="Ketua Tim Kerja" style="swimlane;html=1;startSize=20;horizontal=0;fontFamily=Poppins;fontSource=https%3A%2F%2Ffonts.googleapis.com%2Fcss%3Ffamily%3DPoppins;" vertex="1" parent="JxUC8-nC2UB_euBRExet-131">
          <mxGeometry x="37" width="683" height="140" as="geometry">
            <mxRectangle x="37" width="683" height="30" as="alternateBounds" />
          </mxGeometry>
        </mxCell>
        <mxCell id="JxUC8-nC2UB_euBRExet-137" value="Mengunjungi Halaman Rencana Kerja" style="rounded=1;whiteSpace=wrap;html=1;labelBackgroundColor=none;fontSize=9;arcSize=10;spacingLeft=8;spacingRight=8;fontFamily=Poppins;fontSource=https%3A%2F%2Ffonts.googleapis.com%2Fcss%3Ffamily%3DPoppins;" vertex="1" parent="JxUC8-nC2UB_euBRExet-136">
          <mxGeometry x="80" y="5" width="90" height="60" as="geometry" />
        </mxCell>
        <mxCell id="JxUC8-nC2UB_euBRExet-138" style="edgeStyle=orthogonalEdgeStyle;rounded=0;orthogonalLoop=1;jettySize=auto;html=1;exitX=1;exitY=0.5;exitDx=0;exitDy=0;exitPerimeter=0;entryX=-0.007;entryY=0.438;entryDx=0;entryDy=0;entryPerimeter=0;" edge="1" parent="JxUC8-nC2UB_euBRExet-136" source="JxUC8-nC2UB_euBRExet-139" target="JxUC8-nC2UB_euBRExet-137">
          <mxGeometry relative="1" as="geometry">
            <Array as="points">
              <mxPoint x="60" y="31" />
              <mxPoint x="79" y="31" />
            </Array>
          </mxGeometry>
        </mxCell>
        <mxCell id="JxUC8-nC2UB_euBRExet-139" value="" style="strokeWidth=2;html=1;shape=mxgraph.flowchart.start_2;whiteSpace=wrap;fontSize=11;labelPosition=center;verticalLabelPosition=middle;align=center;verticalAlign=top;spacing=0;fillColor=#000000;strokeColor=#FF0000;" vertex="1" parent="JxUC8-nC2UB_euBRExet-136">
          <mxGeometry x="30.000000000000455" y="16" width="30" height="30" as="geometry" />
        </mxCell>
        <mxCell id="JxUC8-nC2UB_euBRExet-151" value="Sistem" style="swimlane;html=1;startSize=20;horizontal=0;fontFamily=Poppins;fontSource=https%3A%2F%2Ffonts.googleapis.com%2Fcss%3Ffamily%3DPoppins;" vertex="1" parent="JxUC8-nC2UB_euBRExet-131">
          <mxGeometry x="37" y="140" width="683" height="100" as="geometry" />
        </mxCell>
        <mxCell id="JxUC8-nC2UB_euBRExet-152" value="Menampilkan Halaman&amp;nbsp; Rencana Kerja" style="rounded=1;whiteSpace=wrap;html=1;labelBackgroundColor=none;fontSize=9;arcSize=10;spacingLeft=8;spacingRight=8;fontFamily=Poppins;fontSource=https%3A%2F%2Ffonts.googleapis.com%2Fcss%3Ffamily%3DPoppins;" vertex="1" parent="JxUC8-nC2UB_euBRExet-151">
          <mxGeometry x="52" y="22" width="90" height="60" as="geometry" />
        </mxCell>
        <mxCell id="JxUC8-nC2UB_euBRExet-157" value="" style="ellipse;html=1;shape=endState;strokeWidth=1;fontSize=11;fillColor=#000000;strokeColor=#FF0000;" vertex="1" parent="JxUC8-nC2UB_euBRExet-151">
          <mxGeometry x="634" y="30" width="40" height="40" as="geometry" />
        </mxCell>
        <mxCell id="JxUC8-nC2UB_euBRExet-158" style="edgeStyle=orthogonalEdgeStyle;shape=connector;rounded=0;orthogonalLoop=1;jettySize=auto;html=1;exitX=1;exitY=0.5;exitDx=0;exitDy=0;entryX=0;entryY=0.5;entryDx=0;entryDy=0;labelBackgroundColor=default;strokeColor=default;fontFamily=Poppins;fontSource=https%3A%2F%2Ffonts.googleapis.com%2Fcss%3Ffamily%3DPoppins;fontSize=8;fontColor=default;endArrow=classic;" edge="1" parent="JxUC8-nC2UB_euBRExet-151" target="JxUC8-nC2UB_euBRExet-157">
          <mxGeometry relative="1" as="geometry">
            <mxPoint x="614" y="52" as="sourcePoint" />
            <Array as="points">
              <mxPoint x="614" y="50" />
            </Array>
          </mxGeometry>
        </mxCell>
        <mxCell id="yG3Y8eRYKx8AdCJg28PP-1" value="&lt;b&gt;&lt;font color=&quot;#007fff&quot; style=&quot;font-size: 32px;&quot;&gt;Penilaian Kinerja Berjenjang&lt;/font&gt;&lt;/b&gt;" style="text;html=1;strokeColor=none;fillColor=none;align=left;verticalAlign=middle;whiteSpace=wrap;rounded=0;" vertex="1" parent="1">
          <mxGeometry x="1570" y="-1140" width="590" height="40" as="geometry" />
        </mxCell>
        <mxCell id="yG3Y8eRYKx8AdCJg28PP-2" value="3.1 Mengajukan Penilaian Tugas" style="swimlane;html=1;childLayout=stackLayout;resizeParent=1;resizeParentMax=0;horizontal=0;startSize=37;horizontalStack=0;whiteSpace=wrap;fontSize=11;fontFamily=Poppins;fontSource=https%3A%2F%2Ffonts.googleapis.com%2Fcss%3Ffamily%3DPoppins;spacing=6;spacingTop=4;spacingLeft=6;spacingRight=6;" vertex="1" parent="1">
          <mxGeometry x="1570" y="-1080" width="720" height="290" as="geometry" />
        </mxCell>
        <mxCell id="yG3Y8eRYKx8AdCJg28PP-3" style="edgeStyle=orthogonalEdgeStyle;rounded=0;orthogonalLoop=1;jettySize=auto;html=1;exitX=-0.001;exitY=0.765;exitDx=0;exitDy=0;entryX=0.098;entryY=0.017;entryDx=0;entryDy=0;entryPerimeter=0;exitPerimeter=0;" edge="1" parent="yG3Y8eRYKx8AdCJg28PP-2" source="yG3Y8eRYKx8AdCJg28PP-10" target="yG3Y8eRYKx8AdCJg28PP-19">
          <mxGeometry relative="1" as="geometry">
            <Array as="points">
              <mxPoint x="98" y="51" />
            </Array>
          </mxGeometry>
        </mxCell>
        <mxCell id="yG3Y8eRYKx8AdCJg28PP-4" style="edgeStyle=orthogonalEdgeStyle;rounded=0;orthogonalLoop=1;jettySize=auto;html=1;exitX=0.75;exitY=1;exitDx=0;exitDy=0;entryX=0.25;entryY=0;entryDx=0;entryDy=0;" edge="1" parent="yG3Y8eRYKx8AdCJg28PP-2" source="yG3Y8eRYKx8AdCJg28PP-13" target="yG3Y8eRYKx8AdCJg28PP-20">
          <mxGeometry relative="1" as="geometry">
            <Array as="points">
              <mxPoint x="185" y="151" />
              <mxPoint x="210" y="151" />
            </Array>
          </mxGeometry>
        </mxCell>
        <mxCell id="yG3Y8eRYKx8AdCJg28PP-5" style="edgeStyle=orthogonalEdgeStyle;rounded=0;orthogonalLoop=1;jettySize=auto;html=1;exitX=0.5;exitY=0;exitDx=0;exitDy=0;entryX=0.175;entryY=1.004;entryDx=0;entryDy=0;entryPerimeter=0;" edge="1" parent="yG3Y8eRYKx8AdCJg28PP-2" source="yG3Y8eRYKx8AdCJg28PP-20" target="yG3Y8eRYKx8AdCJg28PP-14">
          <mxGeometry relative="1" as="geometry" />
        </mxCell>
        <mxCell id="yG3Y8eRYKx8AdCJg28PP-6" style="edgeStyle=orthogonalEdgeStyle;rounded=0;orthogonalLoop=1;jettySize=auto;html=1;entryX=0.25;entryY=0;entryDx=0;entryDy=0;fontSize=12;startSize=8;endSize=8;exitX=0.323;exitY=0.972;exitDx=0;exitDy=0;exitPerimeter=0;" edge="1" parent="yG3Y8eRYKx8AdCJg28PP-2" source="yG3Y8eRYKx8AdCJg28PP-14" target="yG3Y8eRYKx8AdCJg28PP-21">
          <mxGeometry relative="1" as="geometry">
            <mxPoint x="247" y="71" as="sourcePoint" />
            <Array as="points">
              <mxPoint x="246" y="131" />
              <mxPoint x="314" y="131" />
              <mxPoint x="314" y="155" />
            </Array>
          </mxGeometry>
        </mxCell>
        <mxCell id="yG3Y8eRYKx8AdCJg28PP-7" style="edgeStyle=orthogonalEdgeStyle;shape=connector;rounded=0;orthogonalLoop=1;jettySize=auto;html=1;exitX=0.464;exitY=0.001;exitDx=0;exitDy=0;entryX=0.077;entryY=0.999;entryDx=0;entryDy=0;labelBackgroundColor=default;strokeColor=default;fontFamily=Poppins;fontSource=https%3A%2F%2Ffonts.googleapis.com%2Fcss%3Ffamily%3DPoppins;fontSize=8;fontColor=default;endArrow=classic;entryPerimeter=0;exitPerimeter=0;" edge="1" parent="yG3Y8eRYKx8AdCJg28PP-2" source="yG3Y8eRYKx8AdCJg28PP-21" target="yG3Y8eRYKx8AdCJg28PP-15">
          <mxGeometry relative="1" as="geometry">
            <Array as="points">
              <mxPoint x="329" y="165" />
              <mxPoint x="328" y="165" />
            </Array>
          </mxGeometry>
        </mxCell>
        <mxCell id="yG3Y8eRYKx8AdCJg28PP-8" style="edgeStyle=orthogonalEdgeStyle;rounded=0;orthogonalLoop=1;jettySize=auto;html=1;exitX=0.812;exitY=-0.006;exitDx=0;exitDy=0;entryX=0.5;entryY=1;entryDx=0;entryDy=0;exitPerimeter=0;" edge="1" parent="yG3Y8eRYKx8AdCJg28PP-2" source="yG3Y8eRYKx8AdCJg28PP-19" target="yG3Y8eRYKx8AdCJg28PP-13">
          <mxGeometry relative="1" as="geometry">
            <Array as="points">
              <mxPoint x="162" y="171" />
              <mxPoint x="162" y="171" />
            </Array>
            <mxPoint x="167" y="155" as="sourcePoint" />
            <mxPoint x="235" y="60" as="targetPoint" />
          </mxGeometry>
        </mxCell>
        <mxCell id="yG3Y8eRYKx8AdCJg28PP-9" value="Pegawai" style="swimlane;html=1;startSize=20;horizontal=0;fontFamily=Poppins;fontSource=https%3A%2F%2Ffonts.googleapis.com%2Fcss%3Ffamily%3DPoppins;" vertex="1" parent="yG3Y8eRYKx8AdCJg28PP-2">
          <mxGeometry x="37" width="683" height="140" as="geometry" />
        </mxCell>
        <mxCell id="yG3Y8eRYKx8AdCJg28PP-10" value="Mengunjungi Halaman Penilaian Tugas" style="rounded=1;whiteSpace=wrap;html=1;labelBackgroundColor=none;fontSize=9;arcSize=10;spacingLeft=8;spacingRight=8;fontFamily=Poppins;fontSource=https%3A%2F%2Ffonts.googleapis.com%2Fcss%3Ffamily%3DPoppins;" vertex="1" parent="yG3Y8eRYKx8AdCJg28PP-9">
          <mxGeometry x="80" y="5" width="90" height="60" as="geometry" />
        </mxCell>
        <mxCell id="yG3Y8eRYKx8AdCJg28PP-11" style="edgeStyle=orthogonalEdgeStyle;rounded=0;orthogonalLoop=1;jettySize=auto;html=1;exitX=1;exitY=0.5;exitDx=0;exitDy=0;exitPerimeter=0;entryX=-0.007;entryY=0.438;entryDx=0;entryDy=0;entryPerimeter=0;" edge="1" parent="yG3Y8eRYKx8AdCJg28PP-9" source="yG3Y8eRYKx8AdCJg28PP-12" target="yG3Y8eRYKx8AdCJg28PP-10">
          <mxGeometry relative="1" as="geometry">
            <Array as="points">
              <mxPoint x="60" y="31" />
              <mxPoint x="79" y="31" />
            </Array>
          </mxGeometry>
        </mxCell>
        <mxCell id="yG3Y8eRYKx8AdCJg28PP-12" value="" style="strokeWidth=2;html=1;shape=mxgraph.flowchart.start_2;whiteSpace=wrap;fontSize=11;labelPosition=center;verticalLabelPosition=middle;align=center;verticalAlign=top;spacing=0;fillColor=#000000;strokeColor=#FF0000;" vertex="1" parent="yG3Y8eRYKx8AdCJg28PP-9">
          <mxGeometry x="30.000000000000455" y="16" width="30" height="30" as="geometry" />
        </mxCell>
        <mxCell id="yG3Y8eRYKx8AdCJg28PP-13" value="Memilih tugas yang ingin diajukan untuk penilaian" style="rounded=1;whiteSpace=wrap;html=1;labelBackgroundColor=none;fontSize=9;arcSize=10;spacingLeft=8;spacingRight=8;fontFamily=Poppins;fontSource=https%3A%2F%2Ffonts.googleapis.com%2Fcss%3Ffamily%3DPoppins;" vertex="1" parent="yG3Y8eRYKx8AdCJg28PP-9">
          <mxGeometry x="80" y="70" width="90" height="60" as="geometry" />
        </mxCell>
        <mxCell id="yG3Y8eRYKx8AdCJg28PP-14" value="Menekan tombol ajukan penilaian" style="rounded=1;whiteSpace=wrap;html=1;labelBackgroundColor=none;fontSize=9;arcSize=10;spacingLeft=8;spacingRight=8;fontFamily=Poppins;fontSource=https%3A%2F%2Ffonts.googleapis.com%2Fcss%3Ffamily%3DPoppins;" vertex="1" parent="yG3Y8eRYKx8AdCJg28PP-9">
          <mxGeometry x="180" y="36" width="90" height="60" as="geometry" />
        </mxCell>
        <mxCell id="yG3Y8eRYKx8AdCJg28PP-15" value="Mengunggah file yang sesuai" style="rounded=1;whiteSpace=wrap;html=1;labelBackgroundColor=none;fontSize=9;arcSize=10;spacingLeft=8;spacingRight=8;fontFamily=Poppins;fontSource=https%3A%2F%2Ffonts.googleapis.com%2Fcss%3Ffamily%3DPoppins;" vertex="1" parent="yG3Y8eRYKx8AdCJg28PP-9">
          <mxGeometry x="284" y="5" width="90" height="60" as="geometry" />
        </mxCell>
        <mxCell id="yG3Y8eRYKx8AdCJg28PP-16" value="Menekan tombol unggah" style="rounded=1;whiteSpace=wrap;html=1;labelBackgroundColor=none;fontSize=9;arcSize=10;spacingLeft=8;spacingRight=8;fontFamily=Poppins;fontSource=https%3A%2F%2Ffonts.googleapis.com%2Fcss%3Ffamily%3DPoppins;" vertex="1" parent="yG3Y8eRYKx8AdCJg28PP-9">
          <mxGeometry x="374" y="70" width="90" height="60" as="geometry" />
        </mxCell>
        <mxCell id="yG3Y8eRYKx8AdCJg28PP-17" style="edgeStyle=orthogonalEdgeStyle;shape=connector;rounded=0;orthogonalLoop=1;jettySize=auto;html=1;exitX=1;exitY=0.5;exitDx=0;exitDy=0;entryX=0.75;entryY=0;entryDx=0;entryDy=0;labelBackgroundColor=default;strokeColor=default;fontFamily=Poppins;fontSource=https%3A%2F%2Ffonts.googleapis.com%2Fcss%3Ffamily%3DPoppins;fontSize=8;fontColor=default;endArrow=classic;" edge="1" parent="yG3Y8eRYKx8AdCJg28PP-9" source="yG3Y8eRYKx8AdCJg28PP-15" target="yG3Y8eRYKx8AdCJg28PP-16">
          <mxGeometry relative="1" as="geometry" />
        </mxCell>
        <mxCell id="yG3Y8eRYKx8AdCJg28PP-18" value="Sistem" style="swimlane;html=1;startSize=20;horizontal=0;fontFamily=Poppins;fontSource=https%3A%2F%2Ffonts.googleapis.com%2Fcss%3Ffamily%3DPoppins;" vertex="1" parent="yG3Y8eRYKx8AdCJg28PP-2">
          <mxGeometry x="37" y="140" width="683" height="150" as="geometry" />
        </mxCell>
        <mxCell id="yG3Y8eRYKx8AdCJg28PP-19" value="Menampilkan Halaman Penilaian Tugas" style="rounded=1;whiteSpace=wrap;html=1;labelBackgroundColor=none;fontSize=9;arcSize=10;spacingLeft=8;spacingRight=8;fontFamily=Poppins;fontSource=https%3A%2F%2Ffonts.googleapis.com%2Fcss%3Ffamily%3DPoppins;" vertex="1" parent="yG3Y8eRYKx8AdCJg28PP-18">
          <mxGeometry x="52" y="45" width="90" height="60" as="geometry" />
        </mxCell>
        <mxCell id="yG3Y8eRYKx8AdCJg28PP-20" value="Menampilkan detail tugas" style="rounded=1;whiteSpace=wrap;html=1;labelBackgroundColor=none;fontSize=9;arcSize=10;spacingLeft=8;spacingRight=8;fontFamily=Poppins;fontSource=https%3A%2F%2Ffonts.googleapis.com%2Fcss%3Ffamily%3DPoppins;" vertex="1" parent="yG3Y8eRYKx8AdCJg28PP-18">
          <mxGeometry x="150" y="45" width="90" height="60" as="geometry" />
        </mxCell>
        <mxCell id="yG3Y8eRYKx8AdCJg28PP-21" value="Menampilkan&amp;nbsp; form upload" style="rounded=1;whiteSpace=wrap;html=1;labelBackgroundColor=none;fontSize=9;arcSize=10;spacingLeft=8;spacingRight=8;fontFamily=Poppins;fontSource=https%3A%2F%2Ffonts.googleapis.com%2Fcss%3Ffamily%3DPoppins;" vertex="1" parent="yG3Y8eRYKx8AdCJg28PP-18">
          <mxGeometry x="254" y="15" width="90" height="60" as="geometry" />
        </mxCell>
        <mxCell id="yG3Y8eRYKx8AdCJg28PP-22" style="edgeStyle=orthogonalEdgeStyle;rounded=0;orthogonalLoop=1;jettySize=auto;html=1;exitX=0.5;exitY=1;exitDx=0;exitDy=0;entryX=0.5;entryY=0;entryDx=0;entryDy=0;fontSize=12;startSize=8;endSize=8;" edge="1" parent="yG3Y8eRYKx8AdCJg28PP-18" source="yG3Y8eRYKx8AdCJg28PP-23" target="yG3Y8eRYKx8AdCJg28PP-24">
          <mxGeometry relative="1" as="geometry">
            <Array as="points">
              <mxPoint x="545" y="61" />
              <mxPoint x="545" y="61" />
            </Array>
          </mxGeometry>
        </mxCell>
        <mxCell id="yG3Y8eRYKx8AdCJg28PP-23" value="Menyimpan file pada server dan memperbarui database" style="rounded=1;whiteSpace=wrap;html=1;labelBackgroundColor=none;fontSize=9;arcSize=10;spacingLeft=8;spacingRight=8;fontFamily=Poppins;fontSource=https%3A%2F%2Ffonts.googleapis.com%2Fcss%3Ffamily%3DPoppins;" vertex="1" parent="yG3Y8eRYKx8AdCJg28PP-18">
          <mxGeometry x="517" y="3" width="90" height="60" as="geometry" />
        </mxCell>
        <mxCell id="yG3Y8eRYKx8AdCJg28PP-24" value="Mengarahkan ke halaman detail tugas dengan pesan berhasil" style="rounded=1;whiteSpace=wrap;html=1;labelBackgroundColor=none;fontSize=8;arcSize=10;spacingLeft=8;spacingRight=8;fontFamily=Poppins;fontSource=https%3A%2F%2Ffonts.googleapis.com%2Fcss%3Ffamily%3DPoppins;" vertex="1" parent="yG3Y8eRYKx8AdCJg28PP-18">
          <mxGeometry x="517" y="82" width="90" height="60" as="geometry" />
        </mxCell>
        <mxCell id="yG3Y8eRYKx8AdCJg28PP-25" value="file tidak&lt;br&gt;sesuai" style="edgeStyle=orthogonalEdgeStyle;shape=connector;rounded=0;orthogonalLoop=1;jettySize=auto;html=1;exitX=0.5;exitY=1;exitDx=0;exitDy=0;entryX=1;entryY=0.75;entryDx=0;entryDy=0;labelBackgroundColor=default;strokeColor=default;fontFamily=Poppins;fontSource=https%3A%2F%2Ffonts.googleapis.com%2Fcss%3Ffamily%3DPoppins;fontSize=8;fontColor=default;endArrow=classic;" edge="1" parent="yG3Y8eRYKx8AdCJg28PP-18" source="yG3Y8eRYKx8AdCJg28PP-27" target="yG3Y8eRYKx8AdCJg28PP-28">
          <mxGeometry x="0.3333" y="-16" relative="1" as="geometry">
            <mxPoint as="offset" />
          </mxGeometry>
        </mxCell>
        <mxCell id="yG3Y8eRYKx8AdCJg28PP-26" value="file&lt;br&gt;sesuai" style="edgeStyle=orthogonalEdgeStyle;shape=connector;rounded=0;orthogonalLoop=1;jettySize=auto;html=1;exitX=1;exitY=0.5;exitDx=0;exitDy=0;entryX=0;entryY=0.5;entryDx=0;entryDy=0;labelBackgroundColor=default;strokeColor=default;fontFamily=Poppins;fontSource=https%3A%2F%2Ffonts.googleapis.com%2Fcss%3Ffamily%3DPoppins;fontSize=8;fontColor=default;endArrow=classic;" edge="1" parent="yG3Y8eRYKx8AdCJg28PP-18" source="yG3Y8eRYKx8AdCJg28PP-27" target="yG3Y8eRYKx8AdCJg28PP-23">
          <mxGeometry x="-0.6078" y="-14" relative="1" as="geometry">
            <mxPoint as="offset" />
          </mxGeometry>
        </mxCell>
        <mxCell id="yG3Y8eRYKx8AdCJg28PP-27" value="" style="rhombus;whiteSpace=wrap;html=1;fontSize=11;fontFamily=Poppins;fontSource=https%3A%2F%2Ffonts.googleapis.com%2Fcss%3Ffamily%3DPoppins;" vertex="1" parent="yG3Y8eRYKx8AdCJg28PP-18">
          <mxGeometry x="404.00000000000045" y="52" width="30" height="30" as="geometry" />
        </mxCell>
        <mxCell id="yG3Y8eRYKx8AdCJg28PP-28" value="Menampilkan&amp;nbsp; form upload dengan pesan error" style="rounded=1;whiteSpace=wrap;html=1;labelBackgroundColor=none;fontSize=9;arcSize=10;spacingLeft=8;spacingRight=8;fontFamily=Poppins;fontSource=https%3A%2F%2Ffonts.googleapis.com%2Fcss%3Ffamily%3DPoppins;" vertex="1" parent="yG3Y8eRYKx8AdCJg28PP-18">
          <mxGeometry x="254" y="82" width="90" height="60" as="geometry" />
        </mxCell>
        <mxCell id="yG3Y8eRYKx8AdCJg28PP-29" value="" style="ellipse;html=1;shape=endState;strokeWidth=1;fontSize=11;fillColor=#000000;strokeColor=#FF0000;" vertex="1" parent="yG3Y8eRYKx8AdCJg28PP-18">
          <mxGeometry x="630" y="91" width="40" height="40" as="geometry" />
        </mxCell>
        <mxCell id="yG3Y8eRYKx8AdCJg28PP-30" style="edgeStyle=orthogonalEdgeStyle;shape=connector;rounded=0;orthogonalLoop=1;jettySize=auto;html=1;exitX=1;exitY=0.5;exitDx=0;exitDy=0;entryX=0;entryY=0.5;entryDx=0;entryDy=0;labelBackgroundColor=default;strokeColor=default;fontFamily=Poppins;fontSource=https%3A%2F%2Ffonts.googleapis.com%2Fcss%3Ffamily%3DPoppins;fontSize=8;fontColor=default;endArrow=classic;" edge="1" parent="yG3Y8eRYKx8AdCJg28PP-18" source="yG3Y8eRYKx8AdCJg28PP-24" target="yG3Y8eRYKx8AdCJg28PP-29">
          <mxGeometry relative="1" as="geometry">
            <mxPoint x="607" y="282" as="sourcePoint" />
            <Array as="points">
              <mxPoint x="607" y="111" />
            </Array>
          </mxGeometry>
        </mxCell>
        <mxCell id="yG3Y8eRYKx8AdCJg28PP-31" style="edgeStyle=orthogonalEdgeStyle;shape=connector;rounded=0;orthogonalLoop=1;jettySize=auto;html=1;exitX=0.5;exitY=1;exitDx=0;exitDy=0;entryX=0.5;entryY=0;entryDx=0;entryDy=0;labelBackgroundColor=default;strokeColor=default;fontFamily=Poppins;fontSource=https%3A%2F%2Ffonts.googleapis.com%2Fcss%3Ffamily%3DPoppins;fontSize=8;fontColor=default;endArrow=classic;" edge="1" parent="yG3Y8eRYKx8AdCJg28PP-2" source="yG3Y8eRYKx8AdCJg28PP-16" target="yG3Y8eRYKx8AdCJg28PP-27">
          <mxGeometry relative="1" as="geometry" />
        </mxCell>
        <mxCell id="yG3Y8eRYKx8AdCJg28PP-32" style="edgeStyle=orthogonalEdgeStyle;shape=connector;rounded=0;orthogonalLoop=1;jettySize=auto;html=1;exitX=1;exitY=0.25;exitDx=0;exitDy=0;entryX=0.75;entryY=1;entryDx=0;entryDy=0;labelBackgroundColor=default;strokeColor=default;fontFamily=Poppins;fontSource=https%3A%2F%2Ffonts.googleapis.com%2Fcss%3Ffamily%3DPoppins;fontSize=8;fontColor=default;endArrow=classic;" edge="1" parent="yG3Y8eRYKx8AdCJg28PP-2" source="yG3Y8eRYKx8AdCJg28PP-28" target="yG3Y8eRYKx8AdCJg28PP-15">
          <mxGeometry relative="1" as="geometry">
            <Array as="points">
              <mxPoint x="389" y="237" />
              <mxPoint x="389" y="144" />
              <mxPoint x="389" y="144" />
            </Array>
          </mxGeometry>
        </mxCell>
        <mxCell id="oyEot_LWWXdPE7o-WXup-32" value="3.2 Menilai Tugas" style="swimlane;html=1;childLayout=stackLayout;resizeParent=1;resizeParentMax=0;horizontal=0;startSize=37;horizontalStack=0;whiteSpace=wrap;fontSize=11;fontFamily=Poppins;fontSource=https%3A%2F%2Ffonts.googleapis.com%2Fcss%3Ffamily%3DPoppins;spacing=6;spacingTop=4;spacingLeft=6;spacingRight=6;" vertex="1" parent="1">
          <mxGeometry x="1580" y="-760" width="720" height="290" as="geometry" />
        </mxCell>
        <mxCell id="oyEot_LWWXdPE7o-WXup-33" style="edgeStyle=orthogonalEdgeStyle;rounded=0;orthogonalLoop=1;jettySize=auto;html=1;exitX=-0.001;exitY=0.765;exitDx=0;exitDy=0;entryX=0.098;entryY=0.017;entryDx=0;entryDy=0;entryPerimeter=0;exitPerimeter=0;" edge="1" parent="oyEot_LWWXdPE7o-WXup-32" source="oyEot_LWWXdPE7o-WXup-40" target="oyEot_LWWXdPE7o-WXup-50">
          <mxGeometry relative="1" as="geometry">
            <Array as="points">
              <mxPoint x="98" y="51" />
            </Array>
          </mxGeometry>
        </mxCell>
        <mxCell id="oyEot_LWWXdPE7o-WXup-34" style="edgeStyle=orthogonalEdgeStyle;rounded=0;orthogonalLoop=1;jettySize=auto;html=1;exitX=0.75;exitY=1;exitDx=0;exitDy=0;entryX=0.25;entryY=0;entryDx=0;entryDy=0;" edge="1" parent="oyEot_LWWXdPE7o-WXup-32" source="oyEot_LWWXdPE7o-WXup-43" target="oyEot_LWWXdPE7o-WXup-51">
          <mxGeometry relative="1" as="geometry">
            <Array as="points">
              <mxPoint x="185" y="151" />
              <mxPoint x="210" y="151" />
            </Array>
          </mxGeometry>
        </mxCell>
        <mxCell id="oyEot_LWWXdPE7o-WXup-35" style="edgeStyle=orthogonalEdgeStyle;rounded=0;orthogonalLoop=1;jettySize=auto;html=1;exitX=0.5;exitY=0;exitDx=0;exitDy=0;entryX=0.175;entryY=1.004;entryDx=0;entryDy=0;entryPerimeter=0;" edge="1" parent="oyEot_LWWXdPE7o-WXup-32" source="oyEot_LWWXdPE7o-WXup-51" target="oyEot_LWWXdPE7o-WXup-44">
          <mxGeometry relative="1" as="geometry" />
        </mxCell>
        <mxCell id="oyEot_LWWXdPE7o-WXup-38" style="edgeStyle=orthogonalEdgeStyle;rounded=0;orthogonalLoop=1;jettySize=auto;html=1;exitX=0.812;exitY=-0.006;exitDx=0;exitDy=0;entryX=0.5;entryY=1;entryDx=0;entryDy=0;exitPerimeter=0;" edge="1" parent="oyEot_LWWXdPE7o-WXup-32" source="oyEot_LWWXdPE7o-WXup-50" target="oyEot_LWWXdPE7o-WXup-43">
          <mxGeometry relative="1" as="geometry">
            <Array as="points">
              <mxPoint x="162" y="171" />
              <mxPoint x="162" y="171" />
            </Array>
            <mxPoint x="167" y="155" as="sourcePoint" />
            <mxPoint x="235" y="60" as="targetPoint" />
          </mxGeometry>
        </mxCell>
        <mxCell id="oyEot_LWWXdPE7o-WXup-39" value="Pegawai (Penilai)" style="swimlane;html=1;startSize=20;horizontal=0;fontFamily=Poppins;fontSource=https%3A%2F%2Ffonts.googleapis.com%2Fcss%3Ffamily%3DPoppins;" vertex="1" parent="oyEot_LWWXdPE7o-WXup-32">
          <mxGeometry x="37" width="683" height="140" as="geometry" />
        </mxCell>
        <mxCell id="oyEot_LWWXdPE7o-WXup-40" value="Mengunjungi Halaman Penilain Tugas" style="rounded=1;whiteSpace=wrap;html=1;labelBackgroundColor=none;fontSize=9;arcSize=10;spacingLeft=8;spacingRight=8;fontFamily=Poppins;fontSource=https%3A%2F%2Ffonts.googleapis.com%2Fcss%3Ffamily%3DPoppins;" vertex="1" parent="oyEot_LWWXdPE7o-WXup-39">
          <mxGeometry x="80" y="5" width="90" height="60" as="geometry" />
        </mxCell>
        <mxCell id="oyEot_LWWXdPE7o-WXup-41" style="edgeStyle=orthogonalEdgeStyle;rounded=0;orthogonalLoop=1;jettySize=auto;html=1;exitX=1;exitY=0.5;exitDx=0;exitDy=0;exitPerimeter=0;entryX=-0.007;entryY=0.438;entryDx=0;entryDy=0;entryPerimeter=0;" edge="1" parent="oyEot_LWWXdPE7o-WXup-39" source="oyEot_LWWXdPE7o-WXup-42" target="oyEot_LWWXdPE7o-WXup-40">
          <mxGeometry relative="1" as="geometry">
            <Array as="points">
              <mxPoint x="60" y="31" />
              <mxPoint x="79" y="31" />
            </Array>
          </mxGeometry>
        </mxCell>
        <mxCell id="oyEot_LWWXdPE7o-WXup-42" value="" style="strokeWidth=2;html=1;shape=mxgraph.flowchart.start_2;whiteSpace=wrap;fontSize=11;labelPosition=center;verticalLabelPosition=middle;align=center;verticalAlign=top;spacing=0;fillColor=#000000;strokeColor=#FF0000;" vertex="1" parent="oyEot_LWWXdPE7o-WXup-39">
          <mxGeometry x="30.000000000000455" y="16" width="30" height="30" as="geometry" />
        </mxCell>
        <mxCell id="oyEot_LWWXdPE7o-WXup-43" value="Memilih Tugas yang akan dinilai" style="rounded=1;whiteSpace=wrap;html=1;labelBackgroundColor=none;fontSize=9;arcSize=10;spacingLeft=8;spacingRight=8;fontFamily=Poppins;fontSource=https%3A%2F%2Ffonts.googleapis.com%2Fcss%3Ffamily%3DPoppins;" vertex="1" parent="oyEot_LWWXdPE7o-WXup-39">
          <mxGeometry x="80" y="70" width="90" height="60" as="geometry" />
        </mxCell>
        <mxCell id="oyEot_LWWXdPE7o-WXup-44" value="Memberikan Penilaian tugas" style="rounded=1;whiteSpace=wrap;html=1;labelBackgroundColor=none;fontSize=9;arcSize=10;spacingLeft=8;spacingRight=8;fontFamily=Poppins;fontSource=https%3A%2F%2Ffonts.googleapis.com%2Fcss%3Ffamily%3DPoppins;" vertex="1" parent="oyEot_LWWXdPE7o-WXup-39">
          <mxGeometry x="180" y="36" width="90" height="60" as="geometry" />
        </mxCell>
        <mxCell id="oyEot_LWWXdPE7o-WXup-49" value="Sistem" style="swimlane;html=1;startSize=20;horizontal=0;fontFamily=Poppins;fontSource=https%3A%2F%2Ffonts.googleapis.com%2Fcss%3Ffamily%3DPoppins;" vertex="1" parent="oyEot_LWWXdPE7o-WXup-32">
          <mxGeometry x="37" y="140" width="683" height="150" as="geometry" />
        </mxCell>
        <mxCell id="oyEot_LWWXdPE7o-WXup-50" value="Menampilkan Halaman Penilaian Tugas" style="rounded=1;whiteSpace=wrap;html=1;labelBackgroundColor=none;fontSize=9;arcSize=10;spacingLeft=8;spacingRight=8;fontFamily=Poppins;fontSource=https%3A%2F%2Ffonts.googleapis.com%2Fcss%3Ffamily%3DPoppins;" vertex="1" parent="oyEot_LWWXdPE7o-WXup-49">
          <mxGeometry x="52" y="45" width="90" height="60" as="geometry" />
        </mxCell>
        <mxCell id="oyEot_LWWXdPE7o-WXup-51" value="Menampilkan detail tugas" style="rounded=1;whiteSpace=wrap;html=1;labelBackgroundColor=none;fontSize=9;arcSize=10;spacingLeft=8;spacingRight=8;fontFamily=Poppins;fontSource=https%3A%2F%2Ffonts.googleapis.com%2Fcss%3Ffamily%3DPoppins;" vertex="1" parent="oyEot_LWWXdPE7o-WXup-49">
          <mxGeometry x="150" y="45" width="90" height="60" as="geometry" />
        </mxCell>
        <mxCell id="Crkxc4-Y-I0UBZdvlNdu-1" style="edgeStyle=orthogonalEdgeStyle;rounded=0;orthogonalLoop=1;jettySize=auto;html=1;" edge="1" parent="oyEot_LWWXdPE7o-WXup-49" source="oyEot_LWWXdPE7o-WXup-54" target="oyEot_LWWXdPE7o-WXup-55">
          <mxGeometry relative="1" as="geometry" />
        </mxCell>
        <mxCell id="oyEot_LWWXdPE7o-WXup-54" value="Memperbarui data pada&amp;nbsp;&lt;i style=&quot;border-color: var(--border-color);&quot;&gt;database&lt;/i&gt;" style="rounded=1;whiteSpace=wrap;html=1;labelBackgroundColor=none;fontSize=9;arcSize=10;spacingLeft=8;spacingRight=8;fontFamily=Poppins;fontSource=https%3A%2F%2Ffonts.googleapis.com%2Fcss%3Ffamily%3DPoppins;" vertex="1" parent="oyEot_LWWXdPE7o-WXup-49">
          <mxGeometry x="253" y="45" width="90" height="60" as="geometry" />
        </mxCell>
        <mxCell id="Crkxc4-Y-I0UBZdvlNdu-3" style="edgeStyle=orthogonalEdgeStyle;rounded=0;orthogonalLoop=1;jettySize=auto;html=1;" edge="1" parent="oyEot_LWWXdPE7o-WXup-49" source="oyEot_LWWXdPE7o-WXup-55" target="oyEot_LWWXdPE7o-WXup-48">
          <mxGeometry relative="1" as="geometry" />
        </mxCell>
        <mxCell id="oyEot_LWWXdPE7o-WXup-55" value="Mengarahkan ke halaman detail tugas dengan pesan berhasil" style="rounded=1;whiteSpace=wrap;html=1;labelBackgroundColor=none;fontSize=8;arcSize=10;spacingLeft=8;spacingRight=8;fontFamily=Poppins;fontSource=https%3A%2F%2Ffonts.googleapis.com%2Fcss%3Ffamily%3DPoppins;" vertex="1" parent="oyEot_LWWXdPE7o-WXup-49">
          <mxGeometry x="383" y="45" width="90" height="60" as="geometry" />
        </mxCell>
        <mxCell id="oyEot_LWWXdPE7o-WXup-48" value="" style="ellipse;html=1;shape=endState;strokeWidth=1;fontSize=11;fillColor=#000000;strokeColor=#FF0000;" vertex="1" parent="oyEot_LWWXdPE7o-WXup-49">
          <mxGeometry x="523" y="55" width="40" height="40" as="geometry" />
        </mxCell>
        <mxCell id="Crkxc4-Y-I0UBZdvlNdu-2" style="edgeStyle=orthogonalEdgeStyle;rounded=0;orthogonalLoop=1;jettySize=auto;html=1;" edge="1" parent="oyEot_LWWXdPE7o-WXup-32" source="oyEot_LWWXdPE7o-WXup-44" target="oyEot_LWWXdPE7o-WXup-54">
          <mxGeometry relative="1" as="geometry">
            <Array as="points">
              <mxPoint x="335" y="66" />
            </Array>
          </mxGeometry>
        </mxCell>
        <mxCell id="Crkxc4-Y-I0UBZdvlNdu-4" value="3.2 Mengembalikan tugas" style="swimlane;html=1;childLayout=stackLayout;resizeParent=1;resizeParentMax=0;horizontal=0;startSize=37;horizontalStack=0;whiteSpace=wrap;fontSize=11;fontFamily=Poppins;fontSource=https%3A%2F%2Ffonts.googleapis.com%2Fcss%3Ffamily%3DPoppins;spacing=6;spacingTop=4;spacingLeft=6;spacingRight=6;" vertex="1" parent="1">
          <mxGeometry x="1580" y="-440" width="720" height="290" as="geometry" />
        </mxCell>
        <mxCell id="Crkxc4-Y-I0UBZdvlNdu-5" style="edgeStyle=orthogonalEdgeStyle;rounded=0;orthogonalLoop=1;jettySize=auto;html=1;exitX=-0.001;exitY=0.765;exitDx=0;exitDy=0;entryX=0.098;entryY=0.017;entryDx=0;entryDy=0;entryPerimeter=0;exitPerimeter=0;" edge="1" parent="Crkxc4-Y-I0UBZdvlNdu-4" source="Crkxc4-Y-I0UBZdvlNdu-10" target="Crkxc4-Y-I0UBZdvlNdu-16">
          <mxGeometry relative="1" as="geometry">
            <Array as="points">
              <mxPoint x="98" y="51" />
            </Array>
          </mxGeometry>
        </mxCell>
        <mxCell id="Crkxc4-Y-I0UBZdvlNdu-6" style="edgeStyle=orthogonalEdgeStyle;rounded=0;orthogonalLoop=1;jettySize=auto;html=1;exitX=0.75;exitY=1;exitDx=0;exitDy=0;entryX=0.25;entryY=0;entryDx=0;entryDy=0;" edge="1" parent="Crkxc4-Y-I0UBZdvlNdu-4" source="Crkxc4-Y-I0UBZdvlNdu-13" target="Crkxc4-Y-I0UBZdvlNdu-17">
          <mxGeometry relative="1" as="geometry">
            <Array as="points">
              <mxPoint x="185" y="151" />
              <mxPoint x="210" y="151" />
            </Array>
          </mxGeometry>
        </mxCell>
        <mxCell id="Crkxc4-Y-I0UBZdvlNdu-7" style="edgeStyle=orthogonalEdgeStyle;rounded=0;orthogonalLoop=1;jettySize=auto;html=1;exitX=0.5;exitY=0;exitDx=0;exitDy=0;entryX=0.175;entryY=1.004;entryDx=0;entryDy=0;entryPerimeter=0;" edge="1" parent="Crkxc4-Y-I0UBZdvlNdu-4" source="Crkxc4-Y-I0UBZdvlNdu-17" target="Crkxc4-Y-I0UBZdvlNdu-14">
          <mxGeometry relative="1" as="geometry" />
        </mxCell>
        <mxCell id="Crkxc4-Y-I0UBZdvlNdu-8" style="edgeStyle=orthogonalEdgeStyle;rounded=0;orthogonalLoop=1;jettySize=auto;html=1;exitX=0.812;exitY=-0.006;exitDx=0;exitDy=0;entryX=0.5;entryY=1;entryDx=0;entryDy=0;exitPerimeter=0;" edge="1" parent="Crkxc4-Y-I0UBZdvlNdu-4" source="Crkxc4-Y-I0UBZdvlNdu-16" target="Crkxc4-Y-I0UBZdvlNdu-13">
          <mxGeometry relative="1" as="geometry">
            <Array as="points">
              <mxPoint x="162" y="171" />
              <mxPoint x="162" y="171" />
            </Array>
            <mxPoint x="167" y="155" as="sourcePoint" />
            <mxPoint x="235" y="60" as="targetPoint" />
          </mxGeometry>
        </mxCell>
        <mxCell id="Crkxc4-Y-I0UBZdvlNdu-9" value="Pegawai (Penilai)" style="swimlane;html=1;startSize=20;horizontal=0;fontFamily=Poppins;fontSource=https%3A%2F%2Ffonts.googleapis.com%2Fcss%3Ffamily%3DPoppins;" vertex="1" parent="Crkxc4-Y-I0UBZdvlNdu-4">
          <mxGeometry x="37" width="683" height="140" as="geometry" />
        </mxCell>
        <mxCell id="Crkxc4-Y-I0UBZdvlNdu-10" value="Mengunjungi Halaman Penilain Tugas" style="rounded=1;whiteSpace=wrap;html=1;labelBackgroundColor=none;fontSize=9;arcSize=10;spacingLeft=8;spacingRight=8;fontFamily=Poppins;fontSource=https%3A%2F%2Ffonts.googleapis.com%2Fcss%3Ffamily%3DPoppins;" vertex="1" parent="Crkxc4-Y-I0UBZdvlNdu-9">
          <mxGeometry x="80" y="5" width="90" height="60" as="geometry" />
        </mxCell>
        <mxCell id="Crkxc4-Y-I0UBZdvlNdu-11" style="edgeStyle=orthogonalEdgeStyle;rounded=0;orthogonalLoop=1;jettySize=auto;html=1;exitX=1;exitY=0.5;exitDx=0;exitDy=0;exitPerimeter=0;entryX=-0.007;entryY=0.438;entryDx=0;entryDy=0;entryPerimeter=0;" edge="1" parent="Crkxc4-Y-I0UBZdvlNdu-9" source="Crkxc4-Y-I0UBZdvlNdu-12" target="Crkxc4-Y-I0UBZdvlNdu-10">
          <mxGeometry relative="1" as="geometry">
            <Array as="points">
              <mxPoint x="60" y="31" />
              <mxPoint x="79" y="31" />
            </Array>
          </mxGeometry>
        </mxCell>
        <mxCell id="Crkxc4-Y-I0UBZdvlNdu-12" value="" style="strokeWidth=2;html=1;shape=mxgraph.flowchart.start_2;whiteSpace=wrap;fontSize=11;labelPosition=center;verticalLabelPosition=middle;align=center;verticalAlign=top;spacing=0;fillColor=#000000;strokeColor=#FF0000;" vertex="1" parent="Crkxc4-Y-I0UBZdvlNdu-9">
          <mxGeometry x="30.000000000000455" y="16" width="30" height="30" as="geometry" />
        </mxCell>
        <mxCell id="Crkxc4-Y-I0UBZdvlNdu-13" value="Memilih Tugas yang akan dinilai" style="rounded=1;whiteSpace=wrap;html=1;labelBackgroundColor=none;fontSize=9;arcSize=10;spacingLeft=8;spacingRight=8;fontFamily=Poppins;fontSource=https%3A%2F%2Ffonts.googleapis.com%2Fcss%3Ffamily%3DPoppins;" vertex="1" parent="Crkxc4-Y-I0UBZdvlNdu-9">
          <mxGeometry x="80" y="70" width="90" height="60" as="geometry" />
        </mxCell>
        <mxCell id="Crkxc4-Y-I0UBZdvlNdu-14" value="Menekan tombol kembalikan" style="rounded=1;whiteSpace=wrap;html=1;labelBackgroundColor=none;fontSize=9;arcSize=10;spacingLeft=8;spacingRight=8;fontFamily=Poppins;fontSource=https%3A%2F%2Ffonts.googleapis.com%2Fcss%3Ffamily%3DPoppins;" vertex="1" parent="Crkxc4-Y-I0UBZdvlNdu-9">
          <mxGeometry x="180" y="36" width="90" height="60" as="geometry" />
        </mxCell>
        <mxCell id="Crkxc4-Y-I0UBZdvlNdu-15" value="Sistem" style="swimlane;html=1;startSize=20;horizontal=0;fontFamily=Poppins;fontSource=https%3A%2F%2Ffonts.googleapis.com%2Fcss%3Ffamily%3DPoppins;" vertex="1" parent="Crkxc4-Y-I0UBZdvlNdu-4">
          <mxGeometry x="37" y="140" width="683" height="150" as="geometry" />
        </mxCell>
        <mxCell id="Crkxc4-Y-I0UBZdvlNdu-16" value="Menampilkan Halaman Penilaian Tugas" style="rounded=1;whiteSpace=wrap;html=1;labelBackgroundColor=none;fontSize=9;arcSize=10;spacingLeft=8;spacingRight=8;fontFamily=Poppins;fontSource=https%3A%2F%2Ffonts.googleapis.com%2Fcss%3Ffamily%3DPoppins;" vertex="1" parent="Crkxc4-Y-I0UBZdvlNdu-15">
          <mxGeometry x="52" y="45" width="90" height="60" as="geometry" />
        </mxCell>
        <mxCell id="Crkxc4-Y-I0UBZdvlNdu-17" value="Menampilkan detail tugas" style="rounded=1;whiteSpace=wrap;html=1;labelBackgroundColor=none;fontSize=9;arcSize=10;spacingLeft=8;spacingRight=8;fontFamily=Poppins;fontSource=https%3A%2F%2Ffonts.googleapis.com%2Fcss%3Ffamily%3DPoppins;" vertex="1" parent="Crkxc4-Y-I0UBZdvlNdu-15">
          <mxGeometry x="150" y="45" width="90" height="60" as="geometry" />
        </mxCell>
        <mxCell id="Crkxc4-Y-I0UBZdvlNdu-18" style="edgeStyle=orthogonalEdgeStyle;rounded=0;orthogonalLoop=1;jettySize=auto;html=1;" edge="1" parent="Crkxc4-Y-I0UBZdvlNdu-15" source="Crkxc4-Y-I0UBZdvlNdu-19" target="Crkxc4-Y-I0UBZdvlNdu-21">
          <mxGeometry relative="1" as="geometry" />
        </mxCell>
        <mxCell id="Crkxc4-Y-I0UBZdvlNdu-19" value="Memperbarui data pada&amp;nbsp;&lt;i style=&quot;border-color: var(--border-color);&quot;&gt;database&lt;/i&gt;" style="rounded=1;whiteSpace=wrap;html=1;labelBackgroundColor=none;fontSize=9;arcSize=10;spacingLeft=8;spacingRight=8;fontFamily=Poppins;fontSource=https%3A%2F%2Ffonts.googleapis.com%2Fcss%3Ffamily%3DPoppins;" vertex="1" parent="Crkxc4-Y-I0UBZdvlNdu-15">
          <mxGeometry x="253" y="45" width="90" height="60" as="geometry" />
        </mxCell>
        <mxCell id="Crkxc4-Y-I0UBZdvlNdu-20" style="edgeStyle=orthogonalEdgeStyle;rounded=0;orthogonalLoop=1;jettySize=auto;html=1;" edge="1" parent="Crkxc4-Y-I0UBZdvlNdu-15" source="Crkxc4-Y-I0UBZdvlNdu-21" target="Crkxc4-Y-I0UBZdvlNdu-22">
          <mxGeometry relative="1" as="geometry" />
        </mxCell>
        <mxCell id="Crkxc4-Y-I0UBZdvlNdu-21" value="Mengarahkan ke halaman detail tugas dengan pesan tugas berhasil dikembalikan" style="rounded=1;whiteSpace=wrap;html=1;labelBackgroundColor=none;fontSize=8;arcSize=10;spacingLeft=8;spacingRight=8;fontFamily=Poppins;fontSource=https%3A%2F%2Ffonts.googleapis.com%2Fcss%3Ffamily%3DPoppins;" vertex="1" parent="Crkxc4-Y-I0UBZdvlNdu-15">
          <mxGeometry x="383" y="45" width="90" height="60" as="geometry" />
        </mxCell>
        <mxCell id="Crkxc4-Y-I0UBZdvlNdu-22" value="" style="ellipse;html=1;shape=endState;strokeWidth=1;fontSize=11;fillColor=#000000;strokeColor=#FF0000;" vertex="1" parent="Crkxc4-Y-I0UBZdvlNdu-15">
          <mxGeometry x="523" y="55" width="40" height="40" as="geometry" />
        </mxCell>
        <mxCell id="Crkxc4-Y-I0UBZdvlNdu-23" style="edgeStyle=orthogonalEdgeStyle;rounded=0;orthogonalLoop=1;jettySize=auto;html=1;" edge="1" parent="Crkxc4-Y-I0UBZdvlNdu-4" source="Crkxc4-Y-I0UBZdvlNdu-14" target="Crkxc4-Y-I0UBZdvlNdu-19">
          <mxGeometry relative="1" as="geometry">
            <Array as="points">
              <mxPoint x="335" y="66" />
            </Array>
          </mxGeometry>
        </mxCell>
      </root>
    </mxGraphModel>
  </diagram>
</mxfile>
